<?xml version="1.0" standalone="no"?>
<!DOCTYPE svg PUBLIC "-//W3C//DTD SVG 1.1//EN"
  "http://www.w3.org/Graphics/SVG/1.1/DTD/svg11.dtd">
<svg width="2241.0" height="1921.0" version="1.1"
  xmlns="http://www.w3.org/2000/svg">
<line x1="80" y1="80" x2="80" y2="1920" style="stroke:gray;"/><line x1="160" y1="80" x2="160" y2="1920" style="stroke:gray;"/><line x1="240" y1="80" x2="240" y2="1920" style="stroke:gray;"/><line x1="320" y1="80" x2="320" y2="1920" style="stroke:gray;"/><line x1="400" y1="80" x2="400" y2="1920" style="stroke:gray;"/><line x1="480" y1="80" x2="480" y2="1920" style="stroke:gray;"/><line x1="560" y1="80" x2="560" y2="1920" style="stroke:gray;"/><line x1="640" y1="80" x2="640" y2="1920" style="stroke:gray;"/><line x1="720" y1="80" x2="720" y2="1920" style="stroke:gray;"/><line x1="800" y1="80" x2="800" y2="1920" style="stroke:gray;"/><line x1="880" y1="80" x2="880" y2="1920" style="stroke:gray;"/><line x1="960" y1="80" x2="960" y2="1920" style="stroke:gray;"/><line x1="1040" y1="80" x2="1040" y2="1920" style="stroke:gray;"/><line x1="1120" y1="80" x2="1120" y2="1920" style="stroke:gray;"/><line x1="1200" y1="80" x2="1200" y2="1920" style="stroke:gray;"/><line x1="1280" y1="80" x2="1280" y2="1920" style="stroke:gray;"/><line x1="1360" y1="80" x2="1360" y2="1920" style="stroke:gray;"/><line x1="1440" y1="80" x2="1440" y2="1920" style="stroke:gray;"/><line x1="1520" y1="80" x2="1520" y2="1920" style="stroke:gray;"/><line x1="1600" y1="80" x2="1600" y2="1920" style="stroke:gray;"/><line x1="1680" y1="80" x2="1680" y2="1920" style="stroke:gray;"/><line x1="1760" y1="80" x2="1760" y2="1920" style="stroke:gray;"/><line x1="1840" y1="80" x2="1840" y2="1920" style="stroke:gray;"/><line x1="1920" y1="80" x2="1920" y2="1920" style="stroke:gray;"/><line x1="2000" y1="80" x2="2000" y2="1920" style="stroke:gray;"/><line x1="2080" y1="80" x2="2080" y2="1920" style="stroke:gray;"/><line x1="2160" y1="80" x2="2160" y2="1920" style="stroke:gray;"/><line x1="2240" y1="80" x2="2240" y2="1920" style="stroke:gray;"/><line x1="0" y1="80" x2="2240" y2="80" style="stroke:gray;"/><line x1="0" y1="160" x2="2240" y2="160" style="stroke:gray;"/><line x1="0" y1="240" x2="2240" y2="240" style="stroke:gray;"/><line x1="0" y1="320" x2="2240" y2="320" style="stroke:gray;"/><line x1="0" y1="400" x2="2240" y2="400" style="stroke:gray;"/><line x1="0" y1="480" x2="2240" y2="480" style="stroke:gray;"/><line x1="0" y1="560" x2="2240" y2="560" style="stroke:gray;"/><line x1="0" y1="640" x2="2240" y2="640" style="stroke:gray;"/><line x1="0" y1="720" x2="2240" y2="720" style="stroke:gray;"/><line x1="0" y1="800" x2="2240" y2="800" style="stroke:gray;"/><line x1="0" y1="880" x2="2240" y2="880" style="stroke:gray;"/><line x1="0" y1="960" x2="2240" y2="960" style="stroke:gray;"/><line x1="0" y1="1040" x2="2240" y2="1040" style="stroke:gray;"/><line x1="0" y1="1120" x2="2240" y2="1120" style="stroke:gray;"/><line x1="0" y1="1200" x2="2240" y2="1200" style="stroke:gray;"/><line x1="0" y1="1280" x2="2240" y2="1280" style="stroke:gray;"/><line x1="0" y1="1360" x2="2240" y2="1360" style="stroke:gray;"/><line x1="0" y1="1440" x2="2240" y2="1440" style="stroke:gray;"/><line x1="0" y1="1520" x2="2240" y2="1520" style="stroke:gray;"/><line x1="0" y1="1600" x2="2240" y2="1600" style="stroke:gray;"/><line x1="0" y1="1680" x2="2240" y2="1680" style="stroke:gray;"/><line x1="0" y1="1760" x2="2240" y2="1760" style="stroke:gray;"/><line x1="0" y1="1840" x2="2240" y2="1840" style="stroke:gray;"/><line x1="0" y1="1920" x2="2240" y2="1920" style="stroke:gray;"/><line x1="80" y1="1840" x2="160" y2="1840" style="stroke:black;stroke-width:2;"/><polyline points="150,1835 160,1840 150,1845" style="stroke:black;stroke-width:2;fill:black;"/><text x="120" y="1830" font-family="Verdana" font-size="12" style="fill:black;text-anchor:middle;"><tspan x="120" dy="0em">1 m</tspan></text><line x1="80" y1="1840" x2="80" y2="1760" style="stroke:black;stroke-width:2;"/><polyline points="75,1770 80,1760 85,1770" style="stroke:black;stroke-width:2;fill:black;"/><text x="90" y="1800" font-family="Verdana" font-size="12" style="fill:black;text-anchor:start;"><tspan x="90" dy="0em">1 m</tspan></text><text x="80" y="50" font-family="Verdana" font-size="20" style="font-weight:bold;fill:black;text-anchor:start;"><tspan x="80" dy="0em">Model of Crane truss:</tspan></text><line x1="480.0" y1="1760.0" x2="800.0" y2="1760.0" style="stroke:black;stroke-width:2;"/><text x="640.0" y="1738.0" font-family="Verdana" font-size="12" style="fill:black;text-anchor:middle;"><tspan x="640.0" dy="0em">(1)</tspan></text><line x1="480.0" y1="1760.0" x2="480.0" y2="1440.0" style="stroke:black;stroke-width:2;"/><text x="458.0" y="1600.0" font-family="Verdana" font-size="12" style="fill:black;text-anchor:middle;"><tspan x="458.0" dy="0em">(2)</tspan></text><line x1="800.0" y1="1760.0" x2="480.0" y2="1440.0" style="stroke:black;stroke-width:2;"/><text x="624.4436508138959" y="1615.556349186104" font-family="Verdana" font-size="12" style="fill:black;text-anchor:middle;"><tspan x="624.4436508138959" dy="0em">(3)</tspan></text><line x1="800.0" y1="1760.0" x2="800.0" y2="1440.0" style="stroke:black;stroke-width:2;"/><text x="778.0" y="1600.0" font-family="Verdana" font-size="12" style="fill:black;text-anchor:middle;"><tspan x="778.0" dy="0em">(4)</tspan></text><line x1="480.0" y1="1440.0" x2="800.0" y2="1440.0" style="stroke:black;stroke-width:2;"/><text x="640.0" y="1418.0" font-family="Verdana" font-size="12" style="fill:black;text-anchor:middle;"><tspan x="640.0" dy="0em">(5)</tspan></text><line x1="480.0" y1="1440.0" x2="480.0" y2="1120.0" style="stroke:black;stroke-width:2;"/><text x="458.0" y="1280.0" font-family="Verdana" font-size="12" style="fill:black;text-anchor:middle;"><tspan x="458.0" dy="0em">(6)</tspan></text><line x1="800.0" y1="1440.0" x2="480.0" y2="1120.0" style="stroke:black;stroke-width:2;"/><text x="624.4436508138959" y="1295.556349186104" font-family="Verdana" font-size="12" style="fill:black;text-anchor:middle;"><tspan x="624.4436508138959" dy="0em">(7)</tspan></text><line x1="800.0" y1="1440.0" x2="800.0" y2="1120.0" style="stroke:black;stroke-width:2;"/><text x="778.0" y="1280.0" font-family="Verdana" font-size="12" style="fill:black;text-anchor:middle;"><tspan x="778.0" dy="0em">(8)</tspan></text><line x1="480.0" y1="1120.0" x2="800.0" y2="1120.0" style="stroke:black;stroke-width:2;"/><text x="640.0" y="1098.0" font-family="Verdana" font-size="12" style="fill:black;text-anchor:middle;"><tspan x="640.0" dy="0em">(9)</tspan></text><line x1="480.0" y1="1120.0" x2="480.0" y2="800.0" style="stroke:black;stroke-width:2;"/><text x="458.0" y="960.0" font-family="Verdana" font-size="12" style="fill:black;text-anchor:middle;"><tspan x="458.0" dy="0em">(10)</tspan></text><line x1="800.0" y1="1120.0" x2="480.0" y2="800.0" style="stroke:black;stroke-width:2;"/><text x="624.4436508138959" y="975.5563491861041" font-family="Verdana" font-size="12" style="fill:black;text-anchor:middle;"><tspan x="624.4436508138959" dy="0em">(11)</tspan></text><line x1="800.0" y1="1120.0" x2="800.0" y2="800.0" style="stroke:black;stroke-width:2;"/><text x="778.0" y="960.0" font-family="Verdana" font-size="12" style="fill:black;text-anchor:middle;"><tspan x="778.0" dy="0em">(12)</tspan></text><line x1="480.0" y1="800.0" x2="800.0" y2="800.0" style="stroke:black;stroke-width:2;"/><text x="640.0" y="778.0" font-family="Verdana" font-size="12" style="fill:black;text-anchor:middle;"><tspan x="640.0" dy="0em">(13)</tspan></text><line x1="480.0" y1="800.0" x2="480.0" y2="480.0" style="stroke:black;stroke-width:2;"/><text x="458.0" y="640.0" font-family="Verdana" font-size="12" style="fill:black;text-anchor:middle;"><tspan x="458.0" dy="0em">(14)</tspan></text><line x1="800.0" y1="800.0" x2="480.0" y2="480.0" style="stroke:black;stroke-width:2;"/><text x="624.4436508138959" y="655.5563491861041" font-family="Verdana" font-size="12" style="fill:black;text-anchor:middle;"><tspan x="624.4436508138959" dy="0em">(15)</tspan></text><line x1="800.0" y1="800.0" x2="800.0" y2="480.0" style="stroke:black;stroke-width:2;"/><text x="778.0" y="640.0" font-family="Verdana" font-size="12" style="fill:black;text-anchor:middle;"><tspan x="778.0" dy="0em">(16)</tspan></text><line x1="160.0" y1="480.0" x2="480.0" y2="480.0" style="stroke:black;stroke-width:2;"/><text x="320.0" y="458.0" font-family="Verdana" font-size="12" style="fill:black;text-anchor:middle;"><tspan x="320.0" dy="0em">(17)</tspan></text><line x1="160.0" y1="480.0" x2="160.0" y2="160.0" style="stroke:black;stroke-width:2;"/><text x="138.0" y="320.0" font-family="Verdana" font-size="12" style="fill:black;text-anchor:middle;"><tspan x="138.0" dy="0em">(18)</tspan></text><line x1="160.0" y1="480.0" x2="480.0" y2="160.0" style="stroke:black;stroke-width:2;"/><text x="304.44365081389594" y="304.44365081389594" font-family="Verdana" font-size="12" style="fill:black;text-anchor:middle;"><tspan x="304.44365081389594" dy="0em">(19)</tspan></text><line x1="160.0" y1="160.0" x2="480.0" y2="160.0" style="stroke:black;stroke-width:2;"/><text x="320.0" y="138.0" font-family="Verdana" font-size="12" style="fill:black;text-anchor:middle;"><tspan x="320.0" dy="0em">(20)</tspan></text><line x1="480.0" y1="480.0" x2="480.0" y2="160.0" style="stroke:black;stroke-width:2;"/><text x="458.0" y="320.0" font-family="Verdana" font-size="12" style="fill:black;text-anchor:middle;"><tspan x="458.0" dy="0em">(21)</tspan></text><line x1="480.0" y1="480.0" x2="800.0" y2="480.0" style="stroke:black;stroke-width:2;"/><text x="640.0" y="458.0" font-family="Verdana" font-size="12" style="fill:black;text-anchor:middle;"><tspan x="640.0" dy="0em">(22)</tspan></text><line x1="800.0" y1="480.0" x2="480.0" y2="160.0" style="stroke:black;stroke-width:2;"/><text x="624.4436508138959" y="335.55634918610406" font-family="Verdana" font-size="12" style="fill:black;text-anchor:middle;"><tspan x="624.4436508138959" dy="0em">(23)</tspan></text><line x1="480.0" y1="160.0" x2="800.0" y2="160.0" style="stroke:black;stroke-width:2;"/><text x="640.0" y="138.0" font-family="Verdana" font-size="12" style="fill:black;text-anchor:middle;"><tspan x="640.0" dy="0em">(24)</tspan></text><line x1="800.0" y1="480.0" x2="800.0" y2="160.0" style="stroke:black;stroke-width:2;"/><text x="778.0" y="320.0" font-family="Verdana" font-size="12" style="fill:black;text-anchor:middle;"><tspan x="778.0" dy="0em">(25)</tspan></text><line x1="800.0" y1="480.0" x2="1120.0" y2="480.0" style="stroke:black;stroke-width:2;"/><text x="960.0" y="458.0" font-family="Verdana" font-size="12" style="fill:black;text-anchor:middle;"><tspan x="960.0" dy="0em">(26)</tspan></text><line x1="800.0" y1="480.0" x2="960.0" y2="200.0" style="stroke:black;stroke-width:2;"/><text x="860.8986508732619" y="329.08494335614967" font-family="Verdana" font-size="12" style="fill:black;text-anchor:middle;"><tspan x="860.8986508732619" dy="0em">(27)</tspan></text><line x1="800.0" y1="160.0" x2="960.0" y2="200.0" style="stroke:black;stroke-width:2;"/><text x="885.3357837507994" y="158.6568649968027" font-family="Verdana" font-size="12" style="fill:black;text-anchor:middle;"><tspan x="885.3357837507994" dy="0em">(28)</tspan></text><line x1="1120.0" y1="480.0" x2="960.0" y2="200.0" style="stroke:black;stroke-width:2;"/><text x="1020.8986508732619" y="350.91505664385033" font-family="Verdana" font-size="12" style="fill:black;text-anchor:middle;"><tspan x="1020.8986508732619" dy="0em">(29)</tspan></text><line x1="1120.0" y1="480.0" x2="1440.0" y2="480.0" style="stroke:black;stroke-width:2;"/><text x="1280.0" y="458.0" font-family="Verdana" font-size="12" style="fill:black;text-anchor:middle;"><tspan x="1280.0" dy="0em">(30)</tspan></text><line x1="1120.0" y1="480.0" x2="1280.0" y2="280.0" style="stroke:black;stroke-width:2;"/><text x="1182.8208861922533" y="366.2567089538027" font-family="Verdana" font-size="12" style="fill:black;text-anchor:middle;"><tspan x="1182.8208861922533" dy="0em">(31)</tspan></text><line x1="960.0" y1="200.0" x2="1280.0" y2="280.0" style="stroke:black;stroke-width:2;"/><text x="1125.3357837507992" y="218.6568649968027" font-family="Verdana" font-size="12" style="fill:black;text-anchor:middle;"><tspan x="1125.3357837507992" dy="0em">(32)</tspan></text><line x1="1440.0" y1="480.0" x2="1280.0" y2="280.0" style="stroke:black;stroke-width:2;"/><text x="1342.8208861922533" y="393.7432910461973" font-family="Verdana" font-size="12" style="fill:black;text-anchor:middle;"><tspan x="1342.8208861922533" dy="0em">(33)</tspan></text><line x1="1440.0" y1="480.0" x2="1760.0" y2="480.0" style="stroke:black;stroke-width:2;"/><text x="1600.0" y="458.0" font-family="Verdana" font-size="12" style="fill:black;text-anchor:middle;"><tspan x="1600.0" dy="0em">(34)</tspan></text><line x1="1440.0" y1="480.0" x2="1600.0" y2="360.0" style="stroke:black;stroke-width:2;"/><text x="1506.8" y="402.4" font-family="Verdana" font-size="12" style="fill:black;text-anchor:middle;"><tspan x="1506.8" dy="0em">(35)</tspan></text><line x1="1280.0" y1="280.0" x2="1600.0" y2="360.0" style="stroke:black;stroke-width:2;"/><text x="1445.3357837507992" y="298.6568649968027" font-family="Verdana" font-size="12" style="fill:black;text-anchor:middle;"><tspan x="1445.3357837507992" dy="0em">(36)</tspan></text><line x1="1760.0" y1="480.0" x2="1600.0" y2="360.0" style="stroke:black;stroke-width:2;"/><text x="1666.8" y="437.6" font-family="Verdana" font-size="12" style="fill:black;text-anchor:middle;"><tspan x="1666.8" dy="0em">(37)</tspan></text><line x1="1760.0" y1="480.0" x2="2080.0" y2="480.0" style="stroke:black;stroke-width:2;"/><text x="1920.0" y="458.0" font-family="Verdana" font-size="12" style="fill:black;text-anchor:middle;"><tspan x="1920.0" dy="0em">(38)</tspan></text><line x1="1600.0" y1="360.0" x2="2080.0" y2="480.0" style="stroke:black;stroke-width:2;"/><text x="1845.3357837507992" y="398.6568649968027" font-family="Verdana" font-size="12" style="fill:black;text-anchor:middle;"><tspan x="1845.3357837507992" dy="0em">(39)</tspan></text><circle cx="480.0" cy="1760.0" r="6" style="stroke:black;stroke-width:2;fill:white;"/><text x="465.0" y="1745.0" font-family="Verdana" font-size="12" style="fill:black;text-anchor:end;"><tspan x="465.0" dy="0em">[1]</tspan></text><g style="stroke:black;stroke-width:2;fill:white;"><polyline points="480.0,1766.0 469.608,1778.0 490.392,1778.0 480.0,1766.0" style="stroke:black;"/></g><circle cx="800.0" cy="1760.0" r="6" style="stroke:black;stroke-width:2;fill:white;"/><text x="785.0" y="1745.0" font-family="Verdana" font-size="12" style="fill:black;text-anchor:end;"><tspan x="785.0" dy="0em">[2]</tspan></text><g style="stroke:black;stroke-width:2;fill:white;"><polyline points="800.0,1766.0 789.608,1778.0 810.392,1778.0 800.0,1766.0" style="stroke:black;"/></g><circle cx="480.0" cy="1440.0" r="6" style="stroke:black;stroke-width:2;fill:white;"/><text x="465.0" y="1425.0" font-family="Verdana" font-size="12" style="fill:black;text-anchor:end;"><tspan x="465.0" dy="0em">[3]</tspan></text><circle cx="800.0" cy="1440.0" r="6" style="stroke:black;stroke-width:2;fill:white;"/><text x="785.0" y="1425.0" font-family="Verdana" font-size="12" style="fill:black;text-anchor:end;"><tspan x="785.0" dy="0em">[4]</tspan></text><circle cx="480.0" cy="1120.0" r="6" style="stroke:black;stroke-width:2;fill:white;"/><text x="465.0" y="1105.0" font-family="Verdana" font-size="12" style="fill:black;text-anchor:end;"><tspan x="465.0" dy="0em">[5]</tspan></text><circle cx="800.0" cy="1120.0" r="6" style="stroke:black;stroke-width:2;fill:white;"/><text x="785.0" y="1105.0" font-family="Verdana" font-size="12" style="fill:black;text-anchor:end;"><tspan x="785.0" dy="0em">[6]</tspan></text><circle cx="480.0" cy="800.0" r="6" style="stroke:black;stroke-width:2;fill:white;"/><text x="465.0" y="785.0" font-family="Verdana" font-size="12" style="fill:black;text-anchor:end;"><tspan x="465.0" dy="0em">[7]</tspan></text><circle cx="800.0" cy="800.0" r="6" style="stroke:black;stroke-width:2;fill:white;"/><text x="785.0" y="785.0" font-family="Verdana" font-size="12" style="fill:black;text-anchor:end;"><tspan x="785.0" dy="0em">[8]</tspan></text><circle cx="160.0" cy="480.0" r="6" style="stroke:black;stroke-width:2;fill:white;"/><text x="145.0" y="465.0" font-family="Verdana" font-size="12" style="fill:black;text-anchor:end;"><tspan x="145.0" dy="0em">[9]</tspan></text><line x1="160.0" y1="480.0" x2="160.0" y2="560.0" style="stroke:red;stroke-width:3;"/><polyline points="155.0,550.0 160.0,560.0 165.0,550.0" style="stroke:red;stroke-width:3;fill:red;"/><text x="170.0" y="520.0" font-family="Verdana" font-size="12" style="fill:red;text-anchor:start;"><tspan x="170.0" dy="0em">400.0</tspan></text><circle cx="160.0" cy="160.0" r="6" style="stroke:black;stroke-width:2;fill:white;"/><text x="145.0" y="145.0" font-family="Verdana" font-size="12" style="fill:black;text-anchor:end;"><tspan x="145.0" dy="0em">[10]</tspan></text><circle cx="480.0" cy="480.0" r="6" style="stroke:black;stroke-width:2;fill:white;"/><text x="465.0" y="465.0" font-family="Verdana" font-size="12" style="fill:black;text-anchor:end;"><tspan x="465.0" dy="0em">[11]</tspan></text><circle cx="480.0" cy="160.0" r="6" style="stroke:black;stroke-width:2;fill:white;"/><text x="465.0" y="145.0" font-family="Verdana" font-size="12" style="fill:black;text-anchor:end;"><tspan x="465.0" dy="0em">[12]</tspan></text><circle cx="800.0" cy="480.0" r="6" style="stroke:black;stroke-width:2;fill:white;"/><text x="785.0" y="465.0" font-family="Verdana" font-size="12" style="fill:black;text-anchor:end;"><tspan x="785.0" dy="0em">[13]</tspan></text><circle cx="800.0" cy="160.0" r="6" style="stroke:black;stroke-width:2;fill:white;"/><text x="785.0" y="145.0" font-family="Verdana" font-size="12" style="fill:black;text-anchor:end;"><tspan x="785.0" dy="0em">[14]</tspan></text><circle cx="1120.0" cy="480.0" r="6" style="stroke:black;stroke-width:2;fill:white;"/><text x="1105.0" y="465.0" font-family="Verdana" font-size="12" style="fill:black;text-anchor:end;"><tspan x="1105.0" dy="0em">[15]</tspan></text><circle cx="960.0" cy="200.0" r="6" style="stroke:black;stroke-width:2;fill:white;"/><text x="945.0" y="185.0" font-family="Verdana" font-size="12" style="fill:black;text-anchor:end;"><tspan x="945.0" dy="0em">[16]</tspan></text><circle cx="1440.0" cy="480.0" r="6" style="stroke:black;stroke-width:2;fill:white;"/><text x="1425.0" y="465.0" font-family="Verdana" font-size="12" style="fill:black;text-anchor:end;"><tspan x="1425.0" dy="0em">[17]</tspan></text><circle cx="1280.0" cy="280.0" r="6" style="stroke:black;stroke-width:2;fill:white;"/><text x="1265.0" y="265.0" font-family="Verdana" font-size="12" style="fill:black;text-anchor:end;"><tspan x="1265.0" dy="0em">[18]</tspan></text><circle cx="1760.0" cy="480.0" r="6" style="stroke:black;stroke-width:2;fill:white;"/><text x="1745.0" y="465.0" font-family="Verdana" font-size="12" style="fill:black;text-anchor:end;"><tspan x="1745.0" dy="0em">[19]</tspan></text><line x1="1760.0" y1="480.0" x2="1760.0" y2="520.0" style="stroke:red;stroke-width:3;"/><polyline points="1755.0,510.0 1760.0,520.0 1765.0,510.0" style="stroke:red;stroke-width:3;fill:red;"/><text x="1770.0" y="500.0" font-family="Verdana" font-size="12" style="fill:red;text-anchor:start;"><tspan x="1770.0" dy="0em">200.0</tspan></text><circle cx="1600.0" cy="360.0" r="6" style="stroke:black;stroke-width:2;fill:white;"/><text x="1585.0" y="345.0" font-family="Verdana" font-size="12" style="fill:black;text-anchor:end;"><tspan x="1585.0" dy="0em">[20]</tspan></text><circle cx="2080.0" cy="480.0" r="6" style="stroke:black;stroke-width:2;fill:white;"/><text x="2065.0" y="465.0" font-family="Verdana" font-size="12" style="fill:black;text-anchor:end;"><tspan x="2065.0" dy="0em">[21]</tspan></text><g transform="translate(2170.0,1910.0) scale(0.032,-0.032)"
fill="#000000" stroke="none">
<path d="M696 1980 c-145 -57 -208 -159 -209 -335 0 -103 27 -197 85 -291 111
-184 268 -226 385 -103 67 71 101 210 89 369 -13 185 -72 302 -177 355 -58 30
-106 31 -173 5z"/>
<path d="M1302 1965 c-85 -38 -182 -155 -215 -260 -36 -112 -29 -293 14 -378
25 -49 85 -114 120 -133 79 -40 181 -2 259 97 88 112 137 240 147 384 9 138
-19 209 -105 269 -37 26 -54 31 -115 33 -48 2 -83 -2 -105 -12z"/>
<path d="M145 1507 c-47 -22 -113 -103 -130 -160 -30 -102 -13 -228 51 -365
40 -88 98 -153 167 -188 126 -65 291 -5 350 126 70 156 -60 487 -225 571 -54
28 -168 36 -213 16z"/>
<path d="M1693 1445 c-74 -37 -137 -111 -188 -218 -68 -144 -77 -251 -30 -363
22 -53 42 -73 100 -100 98 -46 176 -24 271 79 130 141 190 378 126 503 -58
112 -171 152 -279 99z"/>
<path d="M845 1143 c-66 -23 -110 -70 -169 -181 -50 -95 -80 -123 -186 -177
-61 -32 -164 -143 -201 -220 -31 -65 -34 -77 -34 -170 0 -87 3 -107 26 -155
37 -79 97 -133 205 -187 82 -40 104 -47 171 -50 69 -4 92 0 191 31 63 20 131
36 152 36 20 0 82 -14 136 -32 81 -26 116 -32 189 -32 109 0 176 21 270 89 55
39 69 56 102 121 32 66 37 87 41 164 7 134 -13 186 -102 275 -39 39 -103 90
-142 113 -74 45 -104 79 -187 219 -47 77 -90 115 -164 143 -80 31 -228 37
-298 13z"/>
</g>
</svg>