<?xml version="1.0" standalone="no"?>
<!DOCTYPE svg PUBLIC "-//W3C//DTD SVG 1.1//EN"
  "http://www.w3.org/Graphics/SVG/1.1/DTD/svg11.dtd">
<svg width="2241.0" height="1921.0" version="1.1"
  xmlns="http://www.w3.org/2000/svg">
<line x1="80" y1="80" x2="80" y2="1920" style="stroke:gray;"/><line x1="160" y1="80" x2="160" y2="1920" style="stroke:gray;"/><line x1="240" y1="80" x2="240" y2="1920" style="stroke:gray;"/><line x1="320" y1="80" x2="320" y2="1920" style="stroke:gray;"/><line x1="400" y1="80" x2="400" y2="1920" style="stroke:gray;"/><line x1="480" y1="80" x2="480" y2="1920" style="stroke:gray;"/><line x1="560" y1="80" x2="560" y2="1920" style="stroke:gray;"/><line x1="640" y1="80" x2="640" y2="1920" style="stroke:gray;"/><line x1="720" y1="80" x2="720" y2="1920" style="stroke:gray;"/><line x1="800" y1="80" x2="800" y2="1920" style="stroke:gray;"/><line x1="880" y1="80" x2="880" y2="1920" style="stroke:gray;"/><line x1="960" y1="80" x2="960" y2="1920" style="stroke:gray;"/><line x1="1040" y1="80" x2="1040" y2="1920" style="stroke:gray;"/><line x1="1120" y1="80" x2="1120" y2="1920" style="stroke:gray;"/><line x1="1200" y1="80" x2="1200" y2="1920" style="stroke:gray;"/><line x1="1280" y1="80" x2="1280" y2="1920" style="stroke:gray;"/><line x1="1360" y1="80" x2="1360" y2="1920" style="stroke:gray;"/><line x1="1440" y1="80" x2="1440" y2="1920" style="stroke:gray;"/><line x1="1520" y1="80" x2="1520" y2="1920" style="stroke:gray;"/><line x1="1600" y1="80" x2="1600" y2="1920" style="stroke:gray;"/><line x1="1680" y1="80" x2="1680" y2="1920" style="stroke:gray;"/><line x1="1760" y1="80" x2="1760" y2="1920" style="stroke:gray;"/><line x1="1840" y1="80" x2="1840" y2="1920" style="stroke:gray;"/><line x1="1920" y1="80" x2="1920" y2="1920" style="stroke:gray;"/><line x1="2000" y1="80" x2="2000" y2="1920" style="stroke:gray;"/><line x1="2080" y1="80" x2="2080" y2="1920" style="stroke:gray;"/><line x1="2160" y1="80" x2="2160" y2="1920" style="stroke:gray;"/><line x1="2240" y1="80" x2="2240" y2="1920" style="stroke:gray;"/><line x1="0" y1="80" x2="2240" y2="80" style="stroke:gray;"/><line x1="0" y1="160" x2="2240" y2="160" style="stroke:gray;"/><line x1="0" y1="240" x2="2240" y2="240" style="stroke:gray;"/><line x1="0" y1="320" x2="2240" y2="320" style="stroke:gray;"/><line x1="0" y1="400" x2="2240" y2="400" style="stroke:gray;"/><line x1="0" y1="480" x2="2240" y2="480" style="stroke:gray;"/><line x1="0" y1="560" x2="2240" y2="560" style="stroke:gray;"/><line x1="0" y1="640" x2="2240" y2="640" style="stroke:gray;"/><line x1="0" y1="720" x2="2240" y2="720" style="stroke:gray;"/><line x1="0" y1="800" x2="2240" y2="800" style="stroke:gray;"/><line x1="0" y1="880" x2="2240" y2="880" style="stroke:gray;"/><line x1="0" y1="960" x2="2240" y2="960" style="stroke:gray;"/><line x1="0" y1="1040" x2="2240" y2="1040" style="stroke:gray;"/><line x1="0" y1="1120" x2="2240" y2="1120" style="stroke:gray;"/><line x1="0" y1="1200" x2="2240" y2="1200" style="stroke:gray;"/><line x1="0" y1="1280" x2="2240" y2="1280" style="stroke:gray;"/><line x1="0" y1="1360" x2="2240" y2="1360" style="stroke:gray;"/><line x1="0" y1="1440" x2="2240" y2="1440" style="stroke:gray;"/><line x1="0" y1="1520" x2="2240" y2="1520" style="stroke:gray;"/><line x1="0" y1="1600" x2="2240" y2="1600" style="stroke:gray;"/><line x1="0" y1="1680" x2="2240" y2="1680" style="stroke:gray;"/><line x1="0" y1="1760" x2="2240" y2="1760" style="stroke:gray;"/><line x1="0" y1="1840" x2="2240" y2="1840" style="stroke:gray;"/><line x1="0" y1="1920" x2="2240" y2="1920" style="stroke:gray;"/><line x1="80" y1="1840" x2="160" y2="1840" style="stroke:black;stroke-width:2;"/><polyline points="150,1835 160,1840 150,1845" style="stroke:black;stroke-width:2;fill:black;"/><text x="120" y="1830" font-family="Verdana" font-size="12" style="fill:black;text-anchor:middle;"><tspan x="120" dy="0em">1 m</tspan></text><line x1="80" y1="1840" x2="80" y2="1760" style="stroke:black;stroke-width:2;"/><polyline points="75,1770 80,1760 85,1770" style="stroke:black;stroke-width:2;fill:black;"/><text x="90" y="1800" font-family="Verdana" font-size="12" style="fill:black;text-anchor:start;"><tspan x="90" dy="0em">1 m</tspan></text><text x="80" y="50" font-family="Verdana" font-size="20" style="font-weight:bold;fill:black;text-anchor:start;"><tspan x="80" dy="0em">Displacements of Crane truss:</tspan></text><line x1="480.0" y1="1760.0" x2="800.0" y2="1760.0" style="stroke:gray;stroke-width:2;"/><text x="640.0" y="1738.0" font-family="Verdana" font-size="12" style="fill:gray;text-anchor:middle;"></text><line x1="480.0" y1="1760.0" x2="480.0" y2="1440.0" style="stroke:gray;stroke-width:2;"/><text x="458.0" y="1600.0" font-family="Verdana" font-size="12" style="fill:gray;text-anchor:middle;"></text><line x1="800.0" y1="1760.0" x2="480.0" y2="1440.0" style="stroke:gray;stroke-width:2;"/><text x="624.4436508138959" y="1615.556349186104" font-family="Verdana" font-size="12" style="fill:gray;text-anchor:middle;"></text><line x1="800.0" y1="1760.0" x2="800.0" y2="1440.0" style="stroke:gray;stroke-width:2;"/><text x="778.0" y="1600.0" font-family="Verdana" font-size="12" style="fill:gray;text-anchor:middle;"></text><line x1="480.0" y1="1440.0" x2="800.0" y2="1440.0" style="stroke:gray;stroke-width:2;"/><text x="640.0" y="1418.0" font-family="Verdana" font-size="12" style="fill:gray;text-anchor:middle;"></text><line x1="480.0" y1="1440.0" x2="480.0" y2="1120.0" style="stroke:gray;stroke-width:2;"/><text x="458.0" y="1280.0" font-family="Verdana" font-size="12" style="fill:gray;text-anchor:middle;"></text><line x1="800.0" y1="1440.0" x2="480.0" y2="1120.0" style="stroke:gray;stroke-width:2;"/><text x="624.4436508138959" y="1295.556349186104" font-family="Verdana" font-size="12" style="fill:gray;text-anchor:middle;"></text><line x1="800.0" y1="1440.0" x2="800.0" y2="1120.0" style="stroke:gray;stroke-width:2;"/><text x="778.0" y="1280.0" font-family="Verdana" font-size="12" style="fill:gray;text-anchor:middle;"></text><line x1="480.0" y1="1120.0" x2="800.0" y2="1120.0" style="stroke:gray;stroke-width:2;"/><text x="640.0" y="1098.0" font-family="Verdana" font-size="12" style="fill:gray;text-anchor:middle;"></text><line x1="480.0" y1="1120.0" x2="480.0" y2="800.0" style="stroke:gray;stroke-width:2;"/><text x="458.0" y="960.0" font-family="Verdana" font-size="12" style="fill:gray;text-anchor:middle;"></text><line x1="800.0" y1="1120.0" x2="480.0" y2="800.0" style="stroke:gray;stroke-width:2;"/><text x="624.4436508138959" y="975.5563491861041" font-family="Verdana" font-size="12" style="fill:gray;text-anchor:middle;"></text><line x1="800.0" y1="1120.0" x2="800.0" y2="800.0" style="stroke:gray;stroke-width:2;"/><text x="778.0" y="960.0" font-family="Verdana" font-size="12" style="fill:gray;text-anchor:middle;"></text><line x1="480.0" y1="800.0" x2="800.0" y2="800.0" style="stroke:gray;stroke-width:2;"/><text x="640.0" y="778.0" font-family="Verdana" font-size="12" style="fill:gray;text-anchor:middle;"></text><line x1="480.0" y1="800.0" x2="480.0" y2="480.0" style="stroke:gray;stroke-width:2;"/><text x="458.0" y="640.0" font-family="Verdana" font-size="12" style="fill:gray;text-anchor:middle;"></text><line x1="800.0" y1="800.0" x2="480.0" y2="480.0" style="stroke:gray;stroke-width:2;"/><text x="624.4436508138959" y="655.5563491861041" font-family="Verdana" font-size="12" style="fill:gray;text-anchor:middle;"></text><line x1="800.0" y1="800.0" x2="800.0" y2="480.0" style="stroke:gray;stroke-width:2;"/><text x="778.0" y="640.0" font-family="Verdana" font-size="12" style="fill:gray;text-anchor:middle;"></text><line x1="160.0" y1="480.0" x2="480.0" y2="480.0" style="stroke:gray;stroke-width:2;"/><text x="320.0" y="458.0" font-family="Verdana" font-size="12" style="fill:gray;text-anchor:middle;"></text><line x1="160.0" y1="480.0" x2="160.0" y2="160.0" style="stroke:gray;stroke-width:2;"/><text x="138.0" y="320.0" font-family="Verdana" font-size="12" style="fill:gray;text-anchor:middle;"></text><line x1="160.0" y1="480.0" x2="480.0" y2="160.0" style="stroke:gray;stroke-width:2;"/><text x="304.44365081389594" y="304.44365081389594" font-family="Verdana" font-size="12" style="fill:gray;text-anchor:middle;"></text><line x1="160.0" y1="160.0" x2="480.0" y2="160.0" style="stroke:gray;stroke-width:2;"/><text x="320.0" y="138.0" font-family="Verdana" font-size="12" style="fill:gray;text-anchor:middle;"></text><line x1="480.0" y1="480.0" x2="480.0" y2="160.0" style="stroke:gray;stroke-width:2;"/><text x="458.0" y="320.0" font-family="Verdana" font-size="12" style="fill:gray;text-anchor:middle;"></text><line x1="480.0" y1="480.0" x2="800.0" y2="480.0" style="stroke:gray;stroke-width:2;"/><text x="640.0" y="458.0" font-family="Verdana" font-size="12" style="fill:gray;text-anchor:middle;"></text><line x1="800.0" y1="480.0" x2="480.0" y2="160.0" style="stroke:gray;stroke-width:2;"/><text x="624.4436508138959" y="335.55634918610406" font-family="Verdana" font-size="12" style="fill:gray;text-anchor:middle;"></text><line x1="480.0" y1="160.0" x2="800.0" y2="160.0" style="stroke:gray;stroke-width:2;"/><text x="640.0" y="138.0" font-family="Verdana" font-size="12" style="fill:gray;text-anchor:middle;"></text><line x1="800.0" y1="480.0" x2="800.0" y2="160.0" style="stroke:gray;stroke-width:2;"/><text x="778.0" y="320.0" font-family="Verdana" font-size="12" style="fill:gray;text-anchor:middle;"></text><line x1="800.0" y1="480.0" x2="1120.0" y2="480.0" style="stroke:gray;stroke-width:2;"/><text x="960.0" y="458.0" font-family="Verdana" font-size="12" style="fill:gray;text-anchor:middle;"></text><line x1="800.0" y1="480.0" x2="960.0" y2="200.0" style="stroke:gray;stroke-width:2;"/><text x="860.8986508732619" y="329.08494335614967" font-family="Verdana" font-size="12" style="fill:gray;text-anchor:middle;"></text><line x1="800.0" y1="160.0" x2="960.0" y2="200.0" style="stroke:gray;stroke-width:2;"/><text x="885.3357837507994" y="158.6568649968027" font-family="Verdana" font-size="12" style="fill:gray;text-anchor:middle;"></text><line x1="1120.0" y1="480.0" x2="960.0" y2="200.0" style="stroke:gray;stroke-width:2;"/><text x="1020.8986508732619" y="350.91505664385033" font-family="Verdana" font-size="12" style="fill:gray;text-anchor:middle;"></text><line x1="1120.0" y1="480.0" x2="1440.0" y2="480.0" style="stroke:gray;stroke-width:2;"/><text x="1280.0" y="458.0" font-family="Verdana" font-size="12" style="fill:gray;text-anchor:middle;"></text><line x1="1120.0" y1="480.0" x2="1280.0" y2="280.0" style="stroke:gray;stroke-width:2;"/><text x="1182.8208861922533" y="366.2567089538027" font-family="Verdana" font-size="12" style="fill:gray;text-anchor:middle;"></text><line x1="960.0" y1="200.0" x2="1280.0" y2="280.0" style="stroke:gray;stroke-width:2;"/><text x="1125.3357837507992" y="218.6568649968027" font-family="Verdana" font-size="12" style="fill:gray;text-anchor:middle;"></text><line x1="1440.0" y1="480.0" x2="1280.0" y2="280.0" style="stroke:gray;stroke-width:2;"/><text x="1342.8208861922533" y="393.7432910461973" font-family="Verdana" font-size="12" style="fill:gray;text-anchor:middle;"></text><line x1="1440.0" y1="480.0" x2="1760.0" y2="480.0" style="stroke:gray;stroke-width:2;"/><text x="1600.0" y="458.0" font-family="Verdana" font-size="12" style="fill:gray;text-anchor:middle;"></text><line x1="1440.0" y1="480.0" x2="1600.0" y2="360.0" style="stroke:gray;stroke-width:2;"/><text x="1506.8" y="402.4" font-family="Verdana" font-size="12" style="fill:gray;text-anchor:middle;"></text><line x1="1280.0" y1="280.0" x2="1600.0" y2="360.0" style="stroke:gray;stroke-width:2;"/><text x="1445.3357837507992" y="298.6568649968027" font-family="Verdana" font-size="12" style="fill:gray;text-anchor:middle;"></text><line x1="1760.0" y1="480.0" x2="1600.0" y2="360.0" style="stroke:gray;stroke-width:2;"/><text x="1666.8" y="437.6" font-family="Verdana" font-size="12" style="fill:gray;text-anchor:middle;"></text><line x1="1760.0" y1="480.0" x2="2080.0" y2="480.0" style="stroke:gray;stroke-width:2;"/><text x="1920.0" y="458.0" font-family="Verdana" font-size="12" style="fill:gray;text-anchor:middle;"></text><line x1="1600.0" y1="360.0" x2="2080.0" y2="480.0" style="stroke:gray;stroke-width:2;"/><text x="1845.3357837507992" y="398.6568649968027" font-family="Verdana" font-size="12" style="fill:gray;text-anchor:middle;"></text><line x1="480.0" y1="1760.0" x2="800.0" y2="1760.0" style="stroke:black;stroke-width:2;"/><text x="640.0" y="1738.0" font-family="Verdana" font-size="12" style="fill:black;text-anchor:middle;"><tspan x="640.0" dy="0em">(1)</tspan></text><line x1="480.0" y1="1760.0" x2="479.26626761923154" y2="1440.7337323807685" style="stroke:black;stroke-width:2;"/><text x="457.63319190749314" y="1600.4174260878299" font-family="Verdana" font-size="12" style="fill:black;text-anchor:middle;"><tspan x="457.63319190749314" dy="0em">(2)</tspan></text><line x1="800.0" y1="1760.0" x2="479.26626761923154" y2="1440.7337323807685" style="stroke:black;stroke-width:2;"/><text x="624.1124947889883" y="1615.9588437555099" font-family="Verdana" font-size="12" style="fill:black;text-anchor:middle;"><tspan x="624.1124947889883" dy="0em">(3)</tspan></text><line x1="800.0" y1="1760.0" x2="799.2662676192316" y2="1441.467464761537" style="stroke:black;stroke-width:2;"/><text x="777.6331921754547" y="1600.7844087411595" font-family="Verdana" font-size="12" style="fill:black;text-anchor:middle;"><tspan x="777.6331921754547" dy="0em">(4)</tspan></text><line x1="479.26626761923154" y1="1440.7337323807685" x2="799.2662676192316" y2="1441.467464761537" style="stroke:black;stroke-width:2;"/><text x="639.3167115878063" y="1419.1006564029096" font-family="Verdana" font-size="12" style="fill:black;text-anchor:middle;"><tspan x="639.3167115878063" dy="0em">(5)</tspan></text><line x1="479.26626761923154" y1="1440.7337323807685" x2="479.26626761923154" y2="1121.467464761537" style="stroke:black;stroke-width:2;"/><text x="457.26626761923154" y="1281.1005985711527" font-family="Verdana" font-size="12" style="fill:black;text-anchor:middle;"><tspan x="457.26626761923154" dy="0em">(6)</tspan></text><line x1="799.2662676192316" y1="1441.467464761537" x2="479.26626761923154" y2="1121.467464761537" style="stroke:black;stroke-width:2;"/><text x="623.7099184331275" y="1297.023813947641" font-family="Verdana" font-size="12" style="fill:black;text-anchor:middle;"><tspan x="623.7099184331275" dy="0em">(7)</tspan></text><line x1="799.2662676192316" y1="1441.467464761537" x2="799.2662676192316" y2="1122.9426530218188" style="stroke:black;stroke-width:2;"/><text x="777.2662676192316" y="1282.205058891678" font-family="Verdana" font-size="12" style="fill:black;text-anchor:middle;"><tspan x="777.2662676192316" dy="0em">(8)</tspan></text><line x1="479.26626761923154" y1="1121.467464761537" x2="799.2662676192316" y2="1122.9426530218188" style="stroke:black;stroke-width:2;"/><text x="639.3676857344749" y="1100.2052926573313" font-family="Verdana" font-size="12" style="fill:black;text-anchor:middle;"><tspan x="639.3676857344749" dy="0em">(9)</tspan></text><line x1="479.26626761923154" y1="1121.467464761537" x2="480.0" y2="802.2089206410506" style="stroke:black;stroke-width:2;"/><text x="457.63319191030416" y="961.7876315807105" font-family="Verdana" font-size="12" style="fill:black;text-anchor:middle;"><tspan x="457.63319191030416" dy="0em">(10)</tspan></text><line x1="799.2662676192316" y1="1122.9426530218188" x2="480.0" y2="802.2089206410506" style="stroke:black;stroke-width:2;"/><text x="624.0411562444904" y="978.0964258520621" font-family="Verdana" font-size="12" style="fill:black;text-anchor:middle;"><tspan x="624.0411562444904" dy="0em">(11)</tspan></text><line x1="799.2662676192316" y1="1122.9426530218188" x2="800.0" y2="804.4101177833559" style="stroke:black;stroke-width:2;"/><text x="777.6331921754547" y="963.6257090421964" font-family="Verdana" font-size="12" style="fill:black;text-anchor:middle;"><tspan x="777.6331921754547" dy="0em">(12)</tspan></text><line x1="480.0" y1="802.2089206410506" x2="800.0" y2="804.4101177833559" style="stroke:black;stroke-width:2;"/><text x="640.1513287233593" y="781.3100396815987" font-family="Verdana" font-size="12" style="fill:black;text-anchor:middle;"><tspan x="640.1513287233593" dy="0em">(13)</tspan></text><line x1="480.0" y1="802.2089206410506" x2="481.4674647615369" y2="482.94265302181884" style="stroke:black;stroke-width:2;"/><text x="458.7339647695164" y="642.4746678376486" font-family="Verdana" font-size="12" style="fill:black;text-anchor:middle;"><tspan x="458.7339647695164" dy="0em">(14)</tspan></text><line x1="800.0" y1="804.4101177833559" x2="481.4674647615369" y2="482.94265302181884" style="stroke:black;stroke-width:2;"/><text x="625.1062087837207" y="659.1612330357968" font-family="Verdana" font-size="12" style="fill:black;text-anchor:middle;"><tspan x="625.1062087837207" dy="0em">(15)</tspan></text><line x1="800.0" y1="804.4101177833559" x2="800.0" y2="485.8853060436377" style="stroke:black;stroke-width:2;"/><text x="778.0" y="645.1477119134968" font-family="Verdana" font-size="12" style="fill:black;text-anchor:middle;"><tspan x="778.0" dy="0em">(16)</tspan></text><line x1="162.94265302181887" y1="488.573083606874" x2="481.4674647615369" y2="482.94265302181884" style="stroke:black;stroke-width:2;"/><text x="321.8162347856356" y="463.76130458692387" font-family="Verdana" font-size="12" style="fill:black;text-anchor:middle;"><tspan x="321.8162347856356" dy="0em">(17)</tspan></text><line x1="162.94265302181887" y1="488.573083606874" x2="166.3641629658235" y2="168.57308360687398" style="stroke:black;stroke-width:2;"/><text x="142.65466544492364" y="328.3378682431657" font-family="Verdana" font-size="12" style="fill:black;text-anchor:middle;"><tspan x="142.65466544492364" dy="0em">(18)</tspan></text><line x1="162.94265302181887" y1="488.573083606874" x2="486.36416296582354" y2="163.67638540258713" style="stroke:black;stroke-width:2;"/><text x="309.06170213340033" y="310.6038225353224" font-family="Verdana" font-size="12" style="fill:black;text-anchor:middle;"><tspan x="309.06170213340033" dy="0em">(19)</tspan></text><line x1="166.3641629658235" y1="168.57308360687398" x2="486.36416296582354" y2="163.67638540258713" style="stroke:black;stroke-width:2;"/><text x="326.02755437156276" y="144.1273097769523" font-family="Verdana" font-size="12" style="fill:black;text-anchor:middle;"><tspan x="326.02755437156276" dy="0em">(20)</tspan></text><line x1="481.4674647615369" y1="482.94265302181884" x2="486.36416296582354" y2="163.67638540258713" style="stroke:black;stroke-width:2;"/><text x="461.9184009843082" y="322.97213721144044" font-family="Verdana" font-size="12" style="fill:black;text-anchor:middle;"><tspan x="461.9184009843082" dy="0em">(21)</tspan></text><line x1="481.4674647615369" y1="482.94265302181884" x2="800.0" y2="485.8853060436377" style="stroke:black;stroke-width:2;"/><text x="640.9369631248699" y="462.414918251286" font-family="Verdana" font-size="12" style="fill:black;text-anchor:middle;"><tspan x="640.9369631248699" dy="0em">(22)</tspan></text><line x1="800.0" y1="485.8853060436377" x2="486.36416296582354" y2="163.67638540258713" style="stroke:black;stroke-width:2;"/><text x="627.4174191864934" y="340.1260541830807" font-family="Verdana" font-size="12" style="fill:black;text-anchor:middle;"><tspan x="627.4174191864934" dy="0em">(23)</tspan></text><line x1="486.36416296582354" y1="163.67638540258713" x2="808.573083606874" y2="166.43367445452782" style="stroke:black;stroke-width:2;"/><text x="647.6568804521115" y="143.05583541513178" font-family="Verdana" font-size="12" style="fill:black;text-anchor:middle;"><tspan x="647.6568804521115" dy="0em">(24)</tspan></text><line x1="800.0" y1="485.8853060436377" x2="808.573083606874" y2="166.43367445452782" style="stroke:black;stroke-width:2;"/><text x="782.2944599232598" y="325.56929148969596" font-family="Verdana" font-size="12" style="fill:black;text-anchor:middle;"><tspan x="782.2944599232598" dy="0em">(25)</tspan></text><line x1="800.0" y1="485.8853060436377" x2="1117.8992083413787" y2="498.0343695694148" style="stroke:black;stroke-width:2;"/><text x="959.7897586001594" y="469.97588592032884" font-family="Verdana" font-size="12" style="fill:black;text-anchor:middle;"><tspan x="959.7897586001594" dy="0em">(26)</tspan></text><line x1="800.0" y1="485.8853060436377" x2="968.573083606874" y2="211.27630816759984" style="stroke:black;stroke-width:2;"/><text x="865.5373600073162" y="337.07132484202344" font-family="Verdana" font-size="12" style="fill:black;text-anchor:middle;"><tspan x="865.5373600073162" dy="0em">(27)</tspan></text><line x1="808.573083606874" y1="166.43367445452782" x2="968.573083606874" y2="211.27630816759984" style="stroke:black;stroke-width:2;"/><text x="894.5101760555415" y="167.67124911909085" font-family="Verdana" font-size="12" style="fill:black;text-anchor:middle;"><tspan x="894.5101760555415" dy="0em">(28)</tspan></text><line x1="1117.8992083413787" y1="498.0343695694148" x2="968.573083606874" y2="211.27630816759984" style="stroke:black;stroke-width:2;"/><text x="1023.723282561391" y="364.81644911473194" font-family="Verdana" font-size="12" style="fill:black;text-anchor:middle;"><tspan x="1023.723282561391" dy="0em">(29)</tspan></text><line x1="1117.8992083413787" y1="498.0343695694148" x2="1436.1305271287893" y2="515.6825642015833" style="stroke:black;stroke-width:2;"/><text x="1278.2330527055249" y="484.8922194732124" font-family="Verdana" font-size="12" style="fill:black;text-anchor:middle;"><tspan x="1278.2330527055249" dy="0em">(30)</tspan></text><line x1="1117.8992083413787" y1="498.0343695694148" x2="1287.0438308553776" y2="305.9895732766945" style="stroke:black;stroke-width:2;"/><text x="1185.9620143505917" y="387.4711242512661" font-family="Verdana" font-size="12" style="fill:black;text-anchor:middle;"><tspan x="1185.9620143505917" dy="0em">(31)</tspan></text><line x1="968.573083606874" y1="211.27630816759984" x2="1287.0438308553776" y2="305.9895732766945" style="stroke:black;stroke-width:2;"/><text x="1134.0797968876668" y="237.54573372566946" font-family="Verdana" font-size="12" style="fill:black;text-anchor:middle;"><tspan x="1134.0797968876668" dy="0em">(32)</tspan></text><line x1="1436.1305271287893" y1="515.6825642015833" x2="1287.0438308553776" y2="305.9895732766945" style="stroke:black;stroke-width:2;"/><text x="1343.6570182797261" y="423.58398373842556" font-family="Verdana" font-size="12" style="fill:black;text-anchor:middle;"><tspan x="1343.6570182797261" dy="0em">(33)</tspan></text><line x1="1436.1305271287893" y1="515.6825642015833" x2="1755.149642788183" y2="540.3823131878742" style="stroke:black;stroke-width:2;"/><text x="1597.338331404635" y="506.09808301674855" font-family="Verdana" font-size="12" style="fill:black;text-anchor:middle;"><tspan x="1597.338331404635" dy="0em">(34)</tspan></text><line x1="1436.1305271287893" y1="515.6825642015833" x2="1603.4678509364744" y2="406.7348909055804" style="stroke:black;stroke-width:2;"/><text x="1507.7956300263852" y="442.77195529855976" font-family="Verdana" font-size="12" style="fill:black;text-anchor:middle;"><tspan x="1507.7956300263852" dy="0em">(35)</tspan></text><line x1="1287.0438308553776" y1="305.9895732766945" x2="1603.4678509364744" y2="406.7348909055804" style="stroke:black;stroke-width:2;"/><text x="1451.9302284598632" y="335.3991085012151" font-family="Verdana" font-size="12" style="fill:black;text-anchor:middle;"><tspan x="1451.9302284598632" dy="0em">(36)</tspan></text><line x1="1755.149642788183" y1="540.3823131878742" x2="1603.4678509364744" y2="406.7348909055804" style="stroke:black;stroke-width:2;"/><text x="1664.764666526716" y="490.0652591035406" font-family="Verdana" font-size="12" style="fill:black;text-anchor:middle;"><tspan x="1664.764666526716" dy="0em">(37)</tspan></text><line x1="1755.149642788183" y1="540.3823131878742" x2="2075.149642788183" y2="560.0" style="stroke:black;stroke-width:2;"/><text x="1916.4958314141586" y="528.2323821248714" font-family="Verdana" font-size="12" style="fill:black;text-anchor:middle;"><tspan x="1916.4958314141586" dy="0em">(38)</tspan></text><line x1="1603.4678509364744" y1="406.7348909055804" x2="2075.149642788183" y2="560.0" style="stroke:black;stroke-width:2;"/><text x="1846.1073777069919" y="462.4442855901405" font-family="Verdana" font-size="12" style="fill:black;text-anchor:middle;"><tspan x="1846.1073777069919" dy="0em">(39)</tspan></text><circle cx="480.0" cy="1760.0" r="6" style="stroke:black;stroke-width:2;fill:white;"/><text x="465.0" y="1745.0" font-family="Verdana" font-size="12" style="fill:black;text-anchor:end;"><tspan x="465.0" dy="0em">(0.0, 0.0)</tspan></text><g style="stroke:black;stroke-width:2;fill:white;"><polyline points="480.0,1766.0 469.608,1778.0 490.392,1778.0 480.0,1766.0" style="stroke:black;"/></g><circle cx="800.0" cy="1760.0" r="6" style="stroke:black;stroke-width:2;fill:white;"/><text x="785.0" y="1745.0" font-family="Verdana" font-size="12" style="fill:black;text-anchor:end;"><tspan x="785.0" dy="0em">(0.0, 0.0)</tspan></text><g style="stroke:black;stroke-width:2;fill:white;"><polyline points="800.0,1766.0 789.608,1778.0 810.392,1778.0 800.0,1766.0" style="stroke:black;"/></g><circle cx="479.26626761923154" cy="1440.7337323807685" r="6" style="stroke:black;stroke-width:2;fill:white;"/><text x="464.26626761923154" y="1425.7337323807685" font-family="Verdana" font-size="12" style="fill:black;text-anchor:end;"><tspan x="464.26626761923154" dy="0em">(-0.00095, -0.00095)</tspan></text><circle cx="799.2662676192316" cy="1441.467464761537" r="6" style="stroke:black;stroke-width:2;fill:white;"/><text x="784.2662676192316" y="1426.467464761537" font-family="Verdana" font-size="12" style="fill:black;text-anchor:end;"><tspan x="784.2662676192316" dy="0em">(-0.00095, -0.0019)</tspan></text><circle cx="479.26626761923154" cy="1121.467464761537" r="6" style="stroke:black;stroke-width:2;fill:white;"/><text x="464.26626761923154" y="1106.467464761537" font-family="Verdana" font-size="12" style="fill:black;text-anchor:end;"><tspan x="464.26626761923154" dy="0em">(-0.00095, -0.0019)</tspan></text><circle cx="799.2662676192316" cy="1122.9426530218188" r="6" style="stroke:black;stroke-width:2;fill:white;"/><text x="784.2662676192316" y="1107.9426530218188" font-family="Verdana" font-size="12" style="fill:black;text-anchor:end;"><tspan x="784.2662676192316" dy="0em">(-0.00095, -0.00381)</tspan></text><circle cx="480.0" cy="802.2089206410506" r="6" style="stroke:black;stroke-width:2;fill:white;"/><text x="465.0" y="787.2089206410506" font-family="Verdana" font-size="12" style="fill:black;text-anchor:end;"><tspan x="465.0" dy="0em">(0.0, -0.00286)</tspan></text><circle cx="800.0" cy="804.4101177833559" r="6" style="stroke:black;stroke-width:2;fill:white;"/><text x="785.0" y="789.4101177833559" font-family="Verdana" font-size="12" style="fill:black;text-anchor:end;"><tspan x="785.0" dy="0em">(0.0, -0.00571)</tspan></text><circle cx="162.94265302181887" cy="488.573083606874" r="6" style="stroke:black;stroke-width:2;fill:white;"/><text x="147.94265302181887" y="473.573083606874" font-family="Verdana" font-size="12" style="fill:black;text-anchor:end;"><tspan x="147.94265302181887" dy="0em">(0.00381, -0.0111)</tspan></text><circle cx="166.3641629658235" cy="168.57308360687398" r="6" style="stroke:black;stroke-width:2;fill:white;"/><text x="151.3641629658235" y="153.57308360687398" font-family="Verdana" font-size="12" style="fill:black;text-anchor:end;"><tspan x="151.3641629658235" dy="0em">(0.00824, -0.0111)</tspan></text><circle cx="481.4674647615369" cy="482.94265302181884" r="6" style="stroke:black;stroke-width:2;fill:white;"/><text x="466.4674647615369" y="467.94265302181884" font-family="Verdana" font-size="12" style="fill:black;text-anchor:end;"><tspan x="466.4674647615369" dy="0em">(0.0019, -0.00381)</tspan></text><circle cx="486.36416296582354" cy="163.67638540258713" r="6" style="stroke:black;stroke-width:2;fill:white;"/><text x="471.36416296582354" y="148.67638540258713" font-family="Verdana" font-size="12" style="fill:black;text-anchor:end;"><tspan x="471.36416296582354" dy="0em">(0.00824, -0.00476)</tspan></text><circle cx="800.0" cy="485.8853060436377" r="6" style="stroke:black;stroke-width:2;fill:white;"/><text x="785.0" y="470.8853060436377" font-family="Verdana" font-size="12" style="fill:black;text-anchor:end;"><tspan x="785.0" dy="0em">(0.0, -0.00762)</tspan></text><circle cx="808.573083606874" cy="166.43367445452782" r="6" style="stroke:black;stroke-width:2;fill:white;"/><text x="793.573083606874" y="151.43367445452782" font-family="Verdana" font-size="12" style="fill:black;text-anchor:end;"><tspan x="793.573083606874" dy="0em">(0.0111, -0.00833)</tspan></text><circle cx="1117.8992083413787" cy="498.0343695694148" r="6" style="stroke:black;stroke-width:2;fill:white;"/><text x="1102.8992083413787" y="483.0343695694148" font-family="Verdana" font-size="12" style="fill:black;text-anchor:end;"><tspan x="1102.8992083413787" dy="0em">(-0.00272, -0.02335)</tspan></text><circle cx="968.573083606874" cy="211.27630816759984" r="6" style="stroke:black;stroke-width:2;fill:white;"/><text x="953.573083606874" y="196.27630816759984" font-family="Verdana" font-size="12" style="fill:black;text-anchor:end;"><tspan x="953.573083606874" dy="0em">(0.0111, -0.0146)</tspan></text><circle cx="1436.1305271287893" cy="515.6825642015833" r="6" style="stroke:black;stroke-width:2;fill:white;"/><text x="1421.1305271287893" y="500.6825642015833" font-family="Verdana" font-size="12" style="fill:black;text-anchor:end;"><tspan x="1421.1305271287893" dy="0em">(-0.00501, -0.0462)</tspan></text><circle cx="1287.0438308553776" cy="305.9895732766945" r="6" style="stroke:black;stroke-width:2;fill:white;"/><text x="1272.0438308553776" y="290.9895732766945" font-family="Verdana" font-size="12" style="fill:black;text-anchor:end;"><tspan x="1272.0438308553776" dy="0em">(0.00912, -0.03365)</tspan></text><circle cx="1755.149642788183" cy="540.3823131878742" r="6" style="stroke:black;stroke-width:2;fill:white;"/><text x="1740.149642788183" y="525.3823131878742" font-family="Verdana" font-size="12" style="fill:black;text-anchor:end;"><tspan x="1740.149642788183" dy="0em">(-0.00628, -0.07818)</tspan></text><circle cx="1603.4678509364744" cy="406.7348909055804" r="6" style="stroke:black;stroke-width:2;fill:white;"/><text x="1588.4678509364744" y="391.7348909055804" font-family="Verdana" font-size="12" style="fill:black;text-anchor:end;"><tspan x="1588.4678509364744" dy="0em">(0.00449, -0.06051)</tspan></text><circle cx="2075.149642788183" cy="560.0" r="6" style="stroke:black;stroke-width:2;fill:white;"/><text x="2060.149642788183" y="545.0" font-family="Verdana" font-size="12" style="fill:black;text-anchor:end;"><tspan x="2060.149642788183" dy="0em">(-0.00628, -0.10358)</tspan></text><g transform="translate(2170.0,1910.0) scale(0.032,-0.032)"
fill="#000000" stroke="none">
<path d="M696 1980 c-145 -57 -208 -159 -209 -335 0 -103 27 -197 85 -291 111
-184 268 -226 385 -103 67 71 101 210 89 369 -13 185 -72 302 -177 355 -58 30
-106 31 -173 5z"/>
<path d="M1302 1965 c-85 -38 -182 -155 -215 -260 -36 -112 -29 -293 14 -378
25 -49 85 -114 120 -133 79 -40 181 -2 259 97 88 112 137 240 147 384 9 138
-19 209 -105 269 -37 26 -54 31 -115 33 -48 2 -83 -2 -105 -12z"/>
<path d="M145 1507 c-47 -22 -113 -103 -130 -160 -30 -102 -13 -228 51 -365
40 -88 98 -153 167 -188 126 -65 291 -5 350 126 70 156 -60 487 -225 571 -54
28 -168 36 -213 16z"/>
<path d="M1693 1445 c-74 -37 -137 -111 -188 -218 -68 -144 -77 -251 -30 -363
22 -53 42 -73 100 -100 98 -46 176 -24 271 79 130 141 190 378 126 503 -58
112 -171 152 -279 99z"/>
<path d="M845 1143 c-66 -23 -110 -70 -169 -181 -50 -95 -80 -123 -186 -177
-61 -32 -164 -143 -201 -220 -31 -65 -34 -77 -34 -170 0 -87 3 -107 26 -155
37 -79 97 -133 205 -187 82 -40 104 -47 171 -50 69 -4 92 0 191 31 63 20 131
36 152 36 20 0 82 -14 136 -32 81 -26 116 -32 189 -32 109 0 176 21 270 89 55
39 69 56 102 121 32 66 37 87 41 164 7 134 -13 186 -102 275 -39 39 -103 90
-142 113 -74 45 -104 79 -187 219 -47 77 -90 115 -164 143 -80 31 -228 37
-298 13z"/>
</g>
</svg>