<?xml version="1.0" standalone="no"?>
<!DOCTYPE svg PUBLIC "-//W3C//DTD SVG 1.1//EN"
  "http://www.w3.org/Graphics/SVG/1.1/DTD/svg11.dtd">
<svg width="2241.0" height="1921.0" version="1.1"
  xmlns="http://www.w3.org/2000/svg">
<line x1="80" y1="80" x2="80" y2="1920" style="stroke:gray;"/><line x1="160" y1="80" x2="160" y2="1920" style="stroke:gray;"/><line x1="240" y1="80" x2="240" y2="1920" style="stroke:gray;"/><line x1="320" y1="80" x2="320" y2="1920" style="stroke:gray;"/><line x1="400" y1="80" x2="400" y2="1920" style="stroke:gray;"/><line x1="480" y1="80" x2="480" y2="1920" style="stroke:gray;"/><line x1="560" y1="80" x2="560" y2="1920" style="stroke:gray;"/><line x1="640" y1="80" x2="640" y2="1920" style="stroke:gray;"/><line x1="720" y1="80" x2="720" y2="1920" style="stroke:gray;"/><line x1="800" y1="80" x2="800" y2="1920" style="stroke:gray;"/><line x1="880" y1="80" x2="880" y2="1920" style="stroke:gray;"/><line x1="960" y1="80" x2="960" y2="1920" style="stroke:gray;"/><line x1="1040" y1="80" x2="1040" y2="1920" style="stroke:gray;"/><line x1="1120" y1="80" x2="1120" y2="1920" style="stroke:gray;"/><line x1="1200" y1="80" x2="1200" y2="1920" style="stroke:gray;"/><line x1="1280" y1="80" x2="1280" y2="1920" style="stroke:gray;"/><line x1="1360" y1="80" x2="1360" y2="1920" style="stroke:gray;"/><line x1="1440" y1="80" x2="1440" y2="1920" style="stroke:gray;"/><line x1="1520" y1="80" x2="1520" y2="1920" style="stroke:gray;"/><line x1="1600" y1="80" x2="1600" y2="1920" style="stroke:gray;"/><line x1="1680" y1="80" x2="1680" y2="1920" style="stroke:gray;"/><line x1="1760" y1="80" x2="1760" y2="1920" style="stroke:gray;"/><line x1="1840" y1="80" x2="1840" y2="1920" style="stroke:gray;"/><line x1="1920" y1="80" x2="1920" y2="1920" style="stroke:gray;"/><line x1="2000" y1="80" x2="2000" y2="1920" style="stroke:gray;"/><line x1="2080" y1="80" x2="2080" y2="1920" style="stroke:gray;"/><line x1="2160" y1="80" x2="2160" y2="1920" style="stroke:gray;"/><line x1="2240" y1="80" x2="2240" y2="1920" style="stroke:gray;"/><line x1="0" y1="80" x2="2240" y2="80" style="stroke:gray;"/><line x1="0" y1="160" x2="2240" y2="160" style="stroke:gray;"/><line x1="0" y1="240" x2="2240" y2="240" style="stroke:gray;"/><line x1="0" y1="320" x2="2240" y2="320" style="stroke:gray;"/><line x1="0" y1="400" x2="2240" y2="400" style="stroke:gray;"/><line x1="0" y1="480" x2="2240" y2="480" style="stroke:gray;"/><line x1="0" y1="560" x2="2240" y2="560" style="stroke:gray;"/><line x1="0" y1="640" x2="2240" y2="640" style="stroke:gray;"/><line x1="0" y1="720" x2="2240" y2="720" style="stroke:gray;"/><line x1="0" y1="800" x2="2240" y2="800" style="stroke:gray;"/><line x1="0" y1="880" x2="2240" y2="880" style="stroke:gray;"/><line x1="0" y1="960" x2="2240" y2="960" style="stroke:gray;"/><line x1="0" y1="1040" x2="2240" y2="1040" style="stroke:gray;"/><line x1="0" y1="1120" x2="2240" y2="1120" style="stroke:gray;"/><line x1="0" y1="1200" x2="2240" y2="1200" style="stroke:gray;"/><line x1="0" y1="1280" x2="2240" y2="1280" style="stroke:gray;"/><line x1="0" y1="1360" x2="2240" y2="1360" style="stroke:gray;"/><line x1="0" y1="1440" x2="2240" y2="1440" style="stroke:gray;"/><line x1="0" y1="1520" x2="2240" y2="1520" style="stroke:gray;"/><line x1="0" y1="1600" x2="2240" y2="1600" style="stroke:gray;"/><line x1="0" y1="1680" x2="2240" y2="1680" style="stroke:gray;"/><line x1="0" y1="1760" x2="2240" y2="1760" style="stroke:gray;"/><line x1="0" y1="1840" x2="2240" y2="1840" style="stroke:gray;"/><line x1="0" y1="1920" x2="2240" y2="1920" style="stroke:gray;"/><line x1="80" y1="1840" x2="160" y2="1840" style="stroke:black;stroke-width:2;"/><polyline points="150,1835 160,1840 150,1845" style="stroke:black;stroke-width:2;fill:black;"/><text x="120" y="1830" font-family="Verdana" font-size="12" style="fill:black;text-anchor:middle;"><tspan x="120" dy="0em">1 m</tspan></text><line x1="80" y1="1840" x2="80" y2="1760" style="stroke:black;stroke-width:2;"/><polyline points="75,1770 80,1760 85,1770" style="stroke:black;stroke-width:2;fill:black;"/><text x="90" y="1800" font-family="Verdana" font-size="12" style="fill:black;text-anchor:start;"><tspan x="90" dy="0em">1 m</tspan></text><text x="80" y="50" font-family="Verdana" font-size="20" style="font-weight:bold;fill:black;text-anchor:start;"><tspan x="80" dy="0em">Reactions and axial forces of Crane truss:</tspan></text><line x1="480.0" y1="1760.0" x2="800.0" y2="1760.0" style="stroke:black;stroke-width:2;"/><text x="640.0" y="1738.0" font-family="Verdana" font-size="12" style="fill:black;text-anchor:middle;"><tspan x="640.0" dy="0em">0.0</tspan></text><line x1="480.0" y1="1760.0" x2="480.0" y2="1440.0" style="stroke:blue;stroke-width:10.0;"/><text x="450.0" y="1600.0" font-family="Verdana" font-size="12" style="fill:blue;text-anchor:middle;"><tspan x="450.0" dy="0em">-200.0</tspan></text><line x1="800.0" y1="1760.0" x2="480.0" y2="1440.0" style="stroke:black;stroke-width:2;"/><text x="624.4436508138959" y="1615.556349186104" font-family="Verdana" font-size="12" style="fill:black;text-anchor:middle;"><tspan x="624.4436508138959" dy="0em">0.0</tspan></text><line x1="800.0" y1="1760.0" x2="800.0" y2="1440.0" style="stroke:blue;stroke-width:20.0;"/><text x="760.0" y="1600.0" font-family="Verdana" font-size="12" style="fill:blue;text-anchor:middle;"><tspan x="760.0" dy="0em">-400.0</tspan></text><line x1="480.0" y1="1440.0" x2="800.0" y2="1440.0" style="stroke:black;stroke-width:2;"/><text x="640.0" y="1418.0" font-family="Verdana" font-size="12" style="fill:black;text-anchor:middle;"><tspan x="640.0" dy="0em">0.0</tspan></text><line x1="480.0" y1="1440.0" x2="480.0" y2="1120.0" style="stroke:blue;stroke-width:10.0;"/><text x="450.0" y="1280.0" font-family="Verdana" font-size="12" style="fill:blue;text-anchor:middle;"><tspan x="450.0" dy="0em">-200.0</tspan></text><line x1="800.0" y1="1440.0" x2="480.0" y2="1120.0" style="stroke:black;stroke-width:2;"/><text x="624.4436508138959" y="1295.556349186104" font-family="Verdana" font-size="12" style="fill:black;text-anchor:middle;"><tspan x="624.4436508138959" dy="0em">0.0</tspan></text><line x1="800.0" y1="1440.0" x2="800.0" y2="1120.0" style="stroke:blue;stroke-width:20.0;"/><text x="760.0" y="1280.0" font-family="Verdana" font-size="12" style="fill:blue;text-anchor:middle;"><tspan x="760.0" dy="0em">-400.0</tspan></text><line x1="480.0" y1="1120.0" x2="800.0" y2="1120.0" style="stroke:black;stroke-width:2;"/><text x="640.0" y="1098.0" font-family="Verdana" font-size="12" style="fill:black;text-anchor:middle;"><tspan x="640.0" dy="0em">0.0</tspan></text><line x1="480.0" y1="1120.0" x2="480.0" y2="800.0" style="stroke:blue;stroke-width:10.0;"/><text x="450.0" y="960.0" font-family="Verdana" font-size="12" style="fill:blue;text-anchor:middle;"><tspan x="450.0" dy="0em">-200.0</tspan></text><line x1="800.0" y1="1120.0" x2="480.0" y2="800.0" style="stroke:black;stroke-width:2;"/><text x="624.4436508138959" y="975.5563491861041" font-family="Verdana" font-size="12" style="fill:black;text-anchor:middle;"><tspan x="624.4436508138959" dy="0em">0.0</tspan></text><line x1="800.0" y1="1120.0" x2="800.0" y2="800.0" style="stroke:blue;stroke-width:20.0;"/><text x="760.0" y="960.0" font-family="Verdana" font-size="12" style="fill:blue;text-anchor:middle;"><tspan x="760.0" dy="0em">-400.0</tspan></text><line x1="480.0" y1="800.0" x2="800.0" y2="800.0" style="stroke:black;stroke-width:2;"/><text x="640.0" y="778.0" font-family="Verdana" font-size="12" style="fill:black;text-anchor:middle;"><tspan x="640.0" dy="0em">0.0</tspan></text><line x1="480.0" y1="800.0" x2="480.0" y2="480.0" style="stroke:blue;stroke-width:10.0;"/><text x="450.0" y="640.0" font-family="Verdana" font-size="12" style="fill:blue;text-anchor:middle;"><tspan x="450.0" dy="0em">-200.0</tspan></text><line x1="800.0" y1="800.0" x2="480.0" y2="480.0" style="stroke:black;stroke-width:2;"/><text x="624.4436508138959" y="655.5563491861041" font-family="Verdana" font-size="12" style="fill:black;text-anchor:middle;"><tspan x="624.4436508138959" dy="0em">0.0</tspan></text><line x1="800.0" y1="800.0" x2="800.0" y2="480.0" style="stroke:blue;stroke-width:20.0;"/><text x="760.0" y="640.0" font-family="Verdana" font-size="12" style="fill:blue;text-anchor:middle;"><tspan x="760.0" dy="0em">-400.0</tspan></text><line x1="160.0" y1="480.0" x2="480.0" y2="480.0" style="stroke:blue;stroke-width:20.0;"/><text x="320.0" y="440.0" font-family="Verdana" font-size="12" style="fill:blue;text-anchor:middle;"><tspan x="320.0" dy="0em">-400.0</tspan></text><line x1="160.0" y1="480.0" x2="160.0" y2="160.0" style="stroke:black;stroke-width:2;"/><text x="138.0" y="320.0" font-family="Verdana" font-size="12" style="fill:black;text-anchor:middle;"><tspan x="138.0" dy="0em">0.0</tspan></text><line x1="160.0" y1="480.0" x2="480.0" y2="160.0" style="stroke:red;stroke-width:28.2845;"/><text x="285.85770262379816" y="285.85770262379816" font-family="Verdana" font-size="12" style="fill:red;text-anchor:middle;"><tspan x="285.85770262379816" dy="0em">565.69</tspan></text><line x1="160.0" y1="160.0" x2="480.0" y2="160.0" style="stroke:black;stroke-width:2;"/><text x="320.0" y="138.0" font-family="Verdana" font-size="12" style="fill:black;text-anchor:middle;"><tspan x="320.0" dy="0em">0.0</tspan></text><line x1="480.0" y1="480.0" x2="480.0" y2="160.0" style="stroke:blue;stroke-width:10.0;"/><text x="450.0" y="320.0" font-family="Verdana" font-size="12" style="fill:blue;text-anchor:middle;"><tspan x="450.0" dy="0em">-200.0</tspan></text><line x1="480.0" y1="480.0" x2="800.0" y2="480.0" style="stroke:blue;stroke-width:20.0;"/><text x="640.0" y="440.0" font-family="Verdana" font-size="12" style="fill:blue;text-anchor:middle;"><tspan x="640.0" dy="0em">-400.0</tspan></text><line x1="800.0" y1="480.0" x2="480.0" y2="160.0" style="stroke:blue;stroke-width:14.141999999999998;"/><text x="615.8579602767289" y="344.1420397232711" font-family="Verdana" font-size="12" style="fill:blue;text-anchor:middle;"><tspan x="615.8579602767289" dy="0em">-282.84</tspan></text><line x1="480.0" y1="160.0" x2="800.0" y2="160.0" style="stroke:red;stroke-width:30.0;"/><text x="640.0" y="110.0" font-family="Verdana" font-size="12" style="fill:red;text-anchor:middle;"><tspan x="640.0" dy="0em">600.0</tspan></text><line x1="800.0" y1="480.0" x2="800.0" y2="160.0" style="stroke:blue;stroke-width:7.5;"/><text x="772.5" y="320.0" font-family="Verdana" font-size="12" style="fill:blue;text-anchor:middle;"><tspan x="772.5" dy="0em">-150.0</tspan></text><line x1="800.0" y1="480.0" x2="1120.0" y2="480.0" style="stroke:blue;stroke-width:28.571499999999997;"/><text x="960.0" y="431.4285" font-family="Verdana" font-size="12" style="fill:blue;text-anchor:middle;"><tspan x="960.0" dy="0em">-571.43</tspan></text><line x1="800.0" y1="480.0" x2="960.0" y2="200.0" style="stroke:blue;stroke-width:2.8795000000000006;"/><text x="860.1350310297635" y="328.6485891598648" font-family="Verdana" font-size="12" style="fill:blue;text-anchor:middle;"><tspan x="860.1350310297635" dy="0em">-57.59</tspan></text><line x1="800.0" y1="160.0" x2="960.0" y2="200.0" style="stroke:red;stroke-width:30.923500000000004;"/><text x="892.3507629015377" y="130.59694839384917" font-family="Verdana" font-size="12" style="fill:red;text-anchor:middle;"><tspan x="892.3507629015377" dy="0em">618.47</tspan></text><line x1="1120.0" y1="480.0" x2="960.0" y2="200.0" style="stroke:red;stroke-width:3.839;"/><text x="1019.301951734895" y="351.82745615148855" font-family="Verdana" font-size="12" style="fill:red;text-anchor:middle;"><tspan x="1019.301951734895" dy="0em">76.78</tspan></text><line x1="1120.0" y1="480.0" x2="1440.0" y2="480.0" style="stroke:blue;stroke-width:24.0;"/><text x="1280.0" y="436.0" font-family="Verdana" font-size="12" style="fill:blue;text-anchor:middle;"><tspan x="1280.0" dy="0em">-480.0</tspan></text><line x1="1120.0" y1="480.0" x2="1280.0" y2="280.0" style="stroke:blue;stroke-width:4.2685;"/><text x="1181.0494852980319" y="364.83958823842545" font-family="Verdana" font-size="12" style="fill:blue;text-anchor:middle;"><tspan x="1181.0494852980319" dy="0em">-85.37</tspan></text><line x1="960.0" y1="200.0" x2="1280.0" y2="280.0" style="stroke:red;stroke-width:27.4875;"/><text x="1131.5174104939128" y="193.93035802434855" font-family="Verdana" font-size="12" style="fill:red;text-anchor:middle;"><tspan x="1131.5174104939128" dy="0em">549.75</tspan></text><line x1="1440.0" y1="480.0" x2="1280.0" y2="280.0" style="stroke:red;stroke-width:6.403;"/><text x="1339.3827208242756" y="396.49382334057947" font-family="Verdana" font-size="12" style="fill:red;text-anchor:middle;"><tspan x="1339.3827208242756" dy="0em">128.06</tspan></text><line x1="1440.0" y1="480.0" x2="1760.0" y2="480.0" style="stroke:blue;stroke-width:13.3335;"/><text x="1600.0" y="446.6665" font-family="Verdana" font-size="12" style="fill:blue;text-anchor:middle;"><tspan x="1600.0" dy="0em">-266.67</tspan></text><line x1="1440.0" y1="480.0" x2="1600.0" y2="360.0" style="stroke:blue;stroke-width:8.333499999999999;"/><text x="1502.9999" y="397.3332" font-family="Verdana" font-size="12" style="fill:blue;text-anchor:middle;"><tspan x="1502.9999" dy="0em">-166.67</tspan></text><line x1="1280.0" y1="280.0" x2="1600.0" y2="360.0" style="stroke:red;stroke-width:20.6155;"/><text x="1449.8507056786632" y="280.5971772853473" font-family="Verdana" font-size="12" style="fill:red;text-anchor:middle;"><tspan x="1449.8507056786632" dy="0em">412.31</tspan></text><line x1="1760.0" y1="480.0" x2="1600.0" y2="360.0" style="stroke:red;stroke-width:16.6665;"/><text x="1658.0001" y="449.3332" font-family="Verdana" font-size="12" style="fill:red;text-anchor:middle;"><tspan x="1658.0001" dy="0em">333.33</tspan></text><line x1="1760.0" y1="480.0" x2="2080.0" y2="480.0" style="stroke:black;stroke-width:2;"/><text x="1920.0" y="458.0" font-family="Verdana" font-size="12" style="fill:black;text-anchor:middle;"><tspan x="1920.0" dy="0em">0.0</tspan></text><line x1="1600.0" y1="360.0" x2="2080.0" y2="480.0" style="stroke:black;stroke-width:2;"/><text x="1845.3357837507992" y="398.6568649968027" font-family="Verdana" font-size="12" style="fill:black;text-anchor:middle;"><tspan x="1845.3357837507992" dy="0em">0.0</tspan></text><circle cx="480.0" cy="1760.0" r="6" style="stroke:black;stroke-width:2;fill:white;"/><text x="465.0" y="1745.0" font-family="Verdana" font-size="12" style="fill:black;text-anchor:end;"><tspan x="465.0" dy="0em">[1]</tspan></text><g style="stroke:black;stroke-width:2;fill:white;"><polyline points="480.0,1766.0 469.608,1778.0 490.392,1778.0 480.0,1766.0" style="stroke:black;"/></g><line x1="480.0" y1="1760.0" x2="480.0" y2="1720.0" style="stroke:green;stroke-width:3;"/><polyline points="475.0,1730.0 480.0,1720.0 485.0,1730.0" style="stroke:green;stroke-width:3;fill:green;"/><text x="490.0" y="1740.0" font-family="Verdana" font-size="12" style="fill:green;text-anchor:start;"><tspan x="490.0" dy="0em">200.0</tspan></text><circle cx="800.0" cy="1760.0" r="6" style="stroke:black;stroke-width:2;fill:white;"/><text x="785.0" y="1745.0" font-family="Verdana" font-size="12" style="fill:black;text-anchor:end;"><tspan x="785.0" dy="0em">[2]</tspan></text><g style="stroke:black;stroke-width:2;fill:white;"><polyline points="800.0,1766.0 789.608,1778.0 810.392,1778.0 800.0,1766.0" style="stroke:black;"/></g><line x1="800.0" y1="1760.0" x2="800.0" y2="1680.0" style="stroke:green;stroke-width:3;"/><polyline points="795.0,1690.0 800.0,1680.0 805.0,1690.0" style="stroke:green;stroke-width:3;fill:green;"/><text x="810.0" y="1720.0" font-family="Verdana" font-size="12" style="fill:green;text-anchor:start;"><tspan x="810.0" dy="0em">400.0</tspan></text><circle cx="480.0" cy="1440.0" r="6" style="stroke:black;stroke-width:2;fill:white;"/><text x="465.0" y="1425.0" font-family="Verdana" font-size="12" style="fill:black;text-anchor:end;"><tspan x="465.0" dy="0em">[3]</tspan></text><circle cx="800.0" cy="1440.0" r="6" style="stroke:black;stroke-width:2;fill:white;"/><text x="785.0" y="1425.0" font-family="Verdana" font-size="12" style="fill:black;text-anchor:end;"><tspan x="785.0" dy="0em">[4]</tspan></text><circle cx="480.0" cy="1120.0" r="6" style="stroke:black;stroke-width:2;fill:white;"/><text x="465.0" y="1105.0" font-family="Verdana" font-size="12" style="fill:black;text-anchor:end;"><tspan x="465.0" dy="0em">[5]</tspan></text><circle cx="800.0" cy="1120.0" r="6" style="stroke:black;stroke-width:2;fill:white;"/><text x="785.0" y="1105.0" font-family="Verdana" font-size="12" style="fill:black;text-anchor:end;"><tspan x="785.0" dy="0em">[6]</tspan></text><circle cx="480.0" cy="800.0" r="6" style="stroke:black;stroke-width:2;fill:white;"/><text x="465.0" y="785.0" font-family="Verdana" font-size="12" style="fill:black;text-anchor:end;"><tspan x="465.0" dy="0em">[7]</tspan></text><circle cx="800.0" cy="800.0" r="6" style="stroke:black;stroke-width:2;fill:white;"/><text x="785.0" y="785.0" font-family="Verdana" font-size="12" style="fill:black;text-anchor:end;"><tspan x="785.0" dy="0em">[8]</tspan></text><circle cx="160.0" cy="480.0" r="6" style="stroke:black;stroke-width:2;fill:white;"/><text x="145.0" y="465.0" font-family="Verdana" font-size="12" style="fill:black;text-anchor:end;"><tspan x="145.0" dy="0em">[9]</tspan></text><circle cx="160.0" cy="160.0" r="6" style="stroke:black;stroke-width:2;fill:white;"/><text x="145.0" y="145.0" font-family="Verdana" font-size="12" style="fill:black;text-anchor:end;"><tspan x="145.0" dy="0em">[10]</tspan></text><circle cx="480.0" cy="480.0" r="6" style="stroke:black;stroke-width:2;fill:white;"/><text x="465.0" y="465.0" font-family="Verdana" font-size="12" style="fill:black;text-anchor:end;"><tspan x="465.0" dy="0em">[11]</tspan></text><circle cx="480.0" cy="160.0" r="6" style="stroke:black;stroke-width:2;fill:white;"/><text x="465.0" y="145.0" font-family="Verdana" font-size="12" style="fill:black;text-anchor:end;"><tspan x="465.0" dy="0em">[12]</tspan></text><circle cx="800.0" cy="480.0" r="6" style="stroke:black;stroke-width:2;fill:white;"/><text x="785.0" y="465.0" font-family="Verdana" font-size="12" style="fill:black;text-anchor:end;"><tspan x="785.0" dy="0em">[13]</tspan></text><circle cx="800.0" cy="160.0" r="6" style="stroke:black;stroke-width:2;fill:white;"/><text x="785.0" y="145.0" font-family="Verdana" font-size="12" style="fill:black;text-anchor:end;"><tspan x="785.0" dy="0em">[14]</tspan></text><circle cx="1120.0" cy="480.0" r="6" style="stroke:black;stroke-width:2;fill:white;"/><text x="1105.0" y="465.0" font-family="Verdana" font-size="12" style="fill:black;text-anchor:end;"><tspan x="1105.0" dy="0em">[15]</tspan></text><circle cx="960.0" cy="200.0" r="6" style="stroke:black;stroke-width:2;fill:white;"/><text x="945.0" y="185.0" font-family="Verdana" font-size="12" style="fill:black;text-anchor:end;"><tspan x="945.0" dy="0em">[16]</tspan></text><circle cx="1440.0" cy="480.0" r="6" style="stroke:black;stroke-width:2;fill:white;"/><text x="1425.0" y="465.0" font-family="Verdana" font-size="12" style="fill:black;text-anchor:end;"><tspan x="1425.0" dy="0em">[17]</tspan></text><circle cx="1280.0" cy="280.0" r="6" style="stroke:black;stroke-width:2;fill:white;"/><text x="1265.0" y="265.0" font-family="Verdana" font-size="12" style="fill:black;text-anchor:end;"><tspan x="1265.0" dy="0em">[18]</tspan></text><circle cx="1760.0" cy="480.0" r="6" style="stroke:black;stroke-width:2;fill:white;"/><text x="1745.0" y="465.0" font-family="Verdana" font-size="12" style="fill:black;text-anchor:end;"><tspan x="1745.0" dy="0em">[19]</tspan></text><circle cx="1600.0" cy="360.0" r="6" style="stroke:black;stroke-width:2;fill:white;"/><text x="1585.0" y="345.0" font-family="Verdana" font-size="12" style="fill:black;text-anchor:end;"><tspan x="1585.0" dy="0em">[20]</tspan></text><circle cx="2080.0" cy="480.0" r="6" style="stroke:black;stroke-width:2;fill:white;"/><text x="2065.0" y="465.0" font-family="Verdana" font-size="12" style="fill:black;text-anchor:end;"><tspan x="2065.0" dy="0em">[21]</tspan></text><g transform="translate(2170.0,1910.0) scale(0.032,-0.032)"
fill="#000000" stroke="none">
<path d="M696 1980 c-145 -57 -208 -159 -209 -335 0 -103 27 -197 85 -291 111
-184 268 -226 385 -103 67 71 101 210 89 369 -13 185 -72 302 -177 355 -58 30
-106 31 -173 5z"/>
<path d="M1302 1965 c-85 -38 -182 -155 -215 -260 -36 -112 -29 -293 14 -378
25 -49 85 -114 120 -133 79 -40 181 -2 259 97 88 112 137 240 147 384 9 138
-19 209 -105 269 -37 26 -54 31 -115 33 -48 2 -83 -2 -105 -12z"/>
<path d="M145 1507 c-47 -22 -113 -103 -130 -160 -30 -102 -13 -228 51 -365
40 -88 98 -153 167 -188 126 -65 291 -5 350 126 70 156 -60 487 -225 571 -54
28 -168 36 -213 16z"/>
<path d="M1693 1445 c-74 -37 -137 -111 -188 -218 -68 -144 -77 -251 -30 -363
22 -53 42 -73 100 -100 98 -46 176 -24 271 79 130 141 190 378 126 503 -58
112 -171 152 -279 99z"/>
<path d="M845 1143 c-66 -23 -110 -70 -169 -181 -50 -95 -80 -123 -186 -177
-61 -32 -164 -143 -201 -220 -31 -65 -34 -77 -34 -170 0 -87 3 -107 26 -155
37 -79 97 -133 205 -187 82 -40 104 -47 171 -50 69 -4 92 0 191 31 63 20 131
36 152 36 20 0 82 -14 136 -32 81 -26 116 -32 189 -32 109 0 176 21 270 89 55
39 69 56 102 121 32 66 37 87 41 164 7 134 -13 186 -102 275 -39 39 -103 90
-142 113 -74 45 -104 79 -187 219 -47 77 -90 115 -164 143 -80 31 -228 37
-298 13z"/>
</g>
</svg>