<?xml version="1.0" standalone="no"?>
<!DOCTYPE svg PUBLIC "-//W3C//DTD SVG 1.1//EN"
  "http://www.w3.org/Graphics/SVG/1.1/DTD/svg11.dtd">
<svg width="1281" height="561" version="1.1"
  xmlns="http://www.w3.org/2000/svg">
<line x1="0" y1="0" x2="0" y2="560" style="stroke:gray;"/><line x1="80" y1="0" x2="80" y2="560" style="stroke:gray;"/><line x1="160" y1="0" x2="160" y2="560" style="stroke:gray;"/><line x1="240" y1="0" x2="240" y2="560" style="stroke:gray;"/><line x1="320" y1="0" x2="320" y2="560" style="stroke:gray;"/><line x1="400" y1="0" x2="400" y2="560" style="stroke:gray;"/><line x1="480" y1="0" x2="480" y2="560" style="stroke:gray;"/><line x1="560" y1="0" x2="560" y2="560" style="stroke:gray;"/><line x1="640" y1="0" x2="640" y2="560" style="stroke:gray;"/><line x1="720" y1="0" x2="720" y2="560" style="stroke:gray;"/><line x1="800" y1="0" x2="800" y2="560" style="stroke:gray;"/><line x1="880" y1="0" x2="880" y2="560" style="stroke:gray;"/><line x1="960" y1="0" x2="960" y2="560" style="stroke:gray;"/><line x1="1040" y1="0" x2="1040" y2="560" style="stroke:gray;"/><line x1="1120" y1="0" x2="1120" y2="560" style="stroke:gray;"/><line x1="1200" y1="0" x2="1200" y2="560" style="stroke:gray;"/><line x1="1280" y1="0" x2="1280" y2="560" style="stroke:gray;"/><line x1="0" y1="0" x2="1280" y2="0" style="stroke:gray;"/><line x1="0" y1="80" x2="1280" y2="80" style="stroke:gray;"/><line x1="0" y1="160" x2="1280" y2="160" style="stroke:gray;"/><line x1="0" y1="240" x2="1280" y2="240" style="stroke:gray;"/><line x1="0" y1="320" x2="1280" y2="320" style="stroke:gray;"/><line x1="0" y1="400" x2="1280" y2="400" style="stroke:gray;"/><line x1="0" y1="480" x2="1280" y2="480" style="stroke:gray;"/><line x1="0" y1="560" x2="1280" y2="560" style="stroke:gray;"/><line x1="80" y1="480" x2="160" y2="480" style="stroke:black;stroke-width:2;"/><polyline points="150,475 160,480 150,485" style="stroke:black;stroke-width:2;fill:black;"/><text x="120" y="470" font-family="Verdana" font-size="12" style="fill:black;text-anchor:middle;"><tspan x="120" dy="0em">1 m</tspan></text><line x1="80" y1="480" x2="80" y2="400" style="stroke:black;stroke-width:2;"/><polyline points="75,410 80,400 85,410" style="stroke:black;stroke-width:2;fill:black;"/><text x="90" y="440" font-family="Verdana" font-size="12" style="fill:black;text-anchor:start;"><tspan x="90" dy="0em">1 m</tspan></text><line x1="160" y1="400" x2="480" y2="400" style="stroke:black;stroke-width:2;"/><text x="320.0" y="380.0" font-family="Verdana" font-size="12" style="fill:black;text-anchor:middle;"><tspan x="320.0" dy="0em">(1)</tspan></text><line x1="480" y1="400" x2="880" y2="400" style="stroke:black;stroke-width:2;"/><text x="680.0" y="380.0" font-family="Verdana" font-size="12" style="fill:black;text-anchor:middle;"><tspan x="680.0" dy="0em">(2)</tspan></text><line x1="880" y1="400" x2="1200" y2="400" style="stroke:black;stroke-width:2;"/><text x="1040.0" y="380.0" font-family="Verdana" font-size="12" style="fill:black;text-anchor:middle;"><tspan x="1040.0" dy="0em">(3)</tspan></text><line x1="160" y1="400" x2="480" y2="80" style="stroke:black;stroke-width:2;"/><text x="305.85786437626905" y="225.85786437626905" font-family="Verdana" font-size="12" style="fill:black;text-anchor:middle;"><tspan x="305.85786437626905" dy="0em">(4)</tspan></text><line x1="480" y1="400" x2="480" y2="80" style="stroke:black;stroke-width:2;"/><text x="460.0" y="240.0" font-family="Verdana" font-size="12" style="fill:black;text-anchor:middle;"><tspan x="460.0" dy="0em">(5)</tspan></text><line x1="880" y1="400" x2="480" y2="80" style="stroke:black;stroke-width:2;"/><text x="667.5060990489116" y="255.61737618886062" font-family="Verdana" font-size="12" style="fill:black;text-anchor:middle;"><tspan x="667.5060990489116" dy="0em">(6)</tspan></text><line x1="880" y1="400" x2="880" y2="80" style="stroke:black;stroke-width:2;"/><text x="860.0" y="240.0" font-family="Verdana" font-size="12" style="fill:black;text-anchor:middle;"><tspan x="860.0" dy="0em">(7)</tspan></text><line x1="1200" y1="400" x2="880" y2="80" style="stroke:black;stroke-width:2;"/><text x="1025.8578643762692" y="254.14213562373095" font-family="Verdana" font-size="12" style="fill:black;text-anchor:middle;"><tspan x="1025.8578643762692" dy="0em">(8)</tspan></text><line x1="480" y1="80" x2="880" y2="80" style="stroke:black;stroke-width:2;"/><text x="680.0" y="60.0" font-family="Verdana" font-size="12" style="fill:black;text-anchor:middle;"><tspan x="680.0" dy="0em">(9)</tspan></text><circle cx="160" cy="400" r="6" style="stroke:black;stroke-width:2;fill:white;"/><text x="145" y="385" font-family="Verdana" font-size="12" style="fill:black;text-anchor:end;"><tspan x="145" dy="0em">[1]</tspan></text><g style="stroke:black;stroke-width:2;fill:white;"><polyline points="160,406 149.608,418 170.392,418 160,406" style="stroke:black;"/></g><circle cx="480" cy="400" r="6" style="stroke:black;stroke-width:2;fill:white;"/><text x="465" y="385" font-family="Verdana" font-size="12" style="fill:black;text-anchor:end;"><tspan x="465" dy="0em">[2]</tspan></text><circle cx="880" cy="400" r="6" style="stroke:black;stroke-width:2;fill:white;"/><text x="865" y="385" font-family="Verdana" font-size="12" style="fill:black;text-anchor:end;"><tspan x="865" dy="0em">[3]</tspan></text><circle cx="1200" cy="400" r="6" style="stroke:black;stroke-width:2;fill:white;"/><text x="1185" y="385" font-family="Verdana" font-size="12" style="fill:black;text-anchor:end;"><tspan x="1185" dy="0em">[4]</tspan></text><g style="stroke:black;stroke-width:2;fill:white;"><polyline points="1200,406 1189.608,418 1210.392,418 1200,406" style="stroke:black;"/></g><circle cx="480" cy="80" r="6" style="stroke:black;stroke-width:2;fill:white;"/><text x="465" y="65" font-family="Verdana" font-size="12" style="fill:black;text-anchor:end;"><tspan x="465" dy="0em">[5]</tspan></text><line x1="480" y1="80" x2="480" y2="180" style="stroke:red;stroke-width:3;"/><polyline points="475,170 480,180 485,170" style="stroke:red;stroke-width:3;fill:red;"/><text x="490" y="130" font-family="Verdana" font-size="12" style="fill:red;text-anchor:start;"><tspan x="490" dy="0em">100</tspan></text><circle cx="880" cy="80" r="6" style="stroke:black;stroke-width:2;fill:white;"/><text x="865" y="65" font-family="Verdana" font-size="12" style="fill:black;text-anchor:end;"><tspan x="865" dy="0em">[6]</tspan></text><line x1="880" y1="80" x2="880" y2="180" style="stroke:red;stroke-width:3;"/><polyline points="875,170 880,180 885,170" style="stroke:red;stroke-width:3;fill:red;"/><text x="890" y="130" font-family="Verdana" font-size="12" style="fill:red;text-anchor:start;"><tspan x="890" dy="0em">100</tspan></text></svg>