<?xml version="1.0" standalone="no"?>
<!DOCTYPE svg PUBLIC "-//W3C//DTD SVG 1.1//EN"
  "http://www.w3.org/Graphics/SVG/1.1/DTD/svg11.dtd">
<svg width="150" height="150" version="1.1"
  xmlns="http://www.w3.org/2000/svg">
<g style="stroke:black;"><rect x="0" y="0" width="150" height="150" rx="0" ry="0" style="stroke-width:2;fill:white;"/><line x1="50" y1="0" x2="50" y2="150" style="stroke:black;"/><line x1="100" y1="0" x2="100" y2="150" style="stroke:black;"/><line x1="0" y1="50" x2="150" y2="50" style="stroke:black;"/><line x1="0" y1="100" x2="150" y2="100" style="stroke:black;"/></g><g style="stroke:red;"><line x1="5" y1="5" x2="45" y2="45" style="stroke:black;"/><line x1="5" y1="45" x2="45" y2="5" style="stroke:black;"/></g><circle cx="25" cy="75" r="20" style="stroke:blue;fill:white;"/><g style="stroke:red;"><line x1="5" y1="105" x2="45" y2="145" style="stroke:black;"/><line x1="5" y1="145" x2="45" y2="105" style="stroke:black;"/></g><circle cx="75" cy="25" r="20" style="stroke:blue;fill:white;"/><circle cx="75" cy="125" r="20" style="stroke:blue;fill:white;"/><g style="stroke:red;"><line x1="105" y1="5" x2="145" y2="45" style="stroke:black;"/><line x1="105" y1="45" x2="145" y2="5" style="stroke:black;"/></g><circle cx="125" cy="75" r="20" style="stroke:blue;fill:white;"/><g style="stroke:red;"><line x1="105" y1="105" x2="145" y2="145" style="stroke:black;"/><line x1="105" y1="145" x2="145" y2="105" style="stroke:black;"/></g></svg>