<?xml version="1.0" standalone="no"?>
<!DOCTYPE svg PUBLIC "-//W3C//DTD SVG 1.1//EN"
  "http://www.w3.org/Graphics/SVG/1.1/DTD/svg11.dtd">
<svg width="961.0" height="561.0" version="1.1"
  xmlns="http://www.w3.org/2000/svg">
<line x1="80" y1="80" x2="80" y2="560" style="stroke:gray;"/><line x1="160" y1="80" x2="160" y2="560" style="stroke:gray;"/><line x1="240" y1="80" x2="240" y2="560" style="stroke:gray;"/><line x1="320" y1="80" x2="320" y2="560" style="stroke:gray;"/><line x1="400" y1="80" x2="400" y2="560" style="stroke:gray;"/><line x1="480" y1="80" x2="480" y2="560" style="stroke:gray;"/><line x1="560" y1="80" x2="560" y2="560" style="stroke:gray;"/><line x1="640" y1="80" x2="640" y2="560" style="stroke:gray;"/><line x1="720" y1="80" x2="720" y2="560" style="stroke:gray;"/><line x1="800" y1="80" x2="800" y2="560" style="stroke:gray;"/><line x1="880" y1="80" x2="880" y2="560" style="stroke:gray;"/><line x1="960" y1="80" x2="960" y2="560" style="stroke:gray;"/><line x1="0" y1="80" x2="960" y2="80" style="stroke:gray;"/><line x1="0" y1="160" x2="960" y2="160" style="stroke:gray;"/><line x1="0" y1="240" x2="960" y2="240" style="stroke:gray;"/><line x1="0" y1="320" x2="960" y2="320" style="stroke:gray;"/><line x1="0" y1="400" x2="960" y2="400" style="stroke:gray;"/><line x1="0" y1="480" x2="960" y2="480" style="stroke:gray;"/><line x1="0" y1="560" x2="960" y2="560" style="stroke:gray;"/><line x1="80" y1="480" x2="160" y2="480" style="stroke:black;stroke-width:2;"/><polyline points="150,475 160,480 150,485" style="stroke:black;stroke-width:2;fill:black;"/><text x="120" y="470" font-family="Verdana" font-size="12" style="fill:black;text-anchor:middle;"><tspan x="120" dy="0em">1 m</tspan></text><line x1="80" y1="480" x2="80" y2="400" style="stroke:black;stroke-width:2;"/><polyline points="75,410 80,400 85,410" style="stroke:black;stroke-width:2;fill:black;"/><text x="90" y="440" font-family="Verdana" font-size="12" style="fill:black;text-anchor:start;"><tspan x="90" dy="0em">1 m</tspan></text><text x="80" y="50" font-family="Verdana" font-size="20" style="font-weight:bold;fill:black;text-anchor:start;"><tspan x="80" dy="0em">Reactions and axial forces of Example 1 truss:</tspan></text><line x1="160.0" y1="160.0" x2="480.0" y2="160.0" style="stroke:black;stroke-width:2;"/><text x="320.0" y="138.0" font-family="Verdana" font-size="12" style="fill:black;text-anchor:middle;"><tspan x="320.0" dy="0em">0.0</tspan></text><line x1="480.0" y1="160.0" x2="800.0" y2="160.0" style="stroke:black;stroke-width:2;"/><text x="640.0" y="138.0" font-family="Verdana" font-size="12" style="fill:black;text-anchor:middle;"><tspan x="640.0" dy="0em">0.0</tspan></text><line x1="160.0" y1="160.0" x2="480.0" y2="400.0" style="stroke:red;stroke-width:16.6675;"/><text x="342.0005" y="250.666" font-family="Verdana" font-size="12" style="fill:red;text-anchor:middle;"><tspan x="342.0005" dy="0em">66.67</tspan></text><line x1="480.0" y1="160.0" x2="480.0" y2="400.0" style="stroke:blue;stroke-width:20.0;"/><text x="520.0" y="280.0" font-family="Verdana" font-size="12" style="fill:blue;text-anchor:middle;"><tspan x="520.0" dy="0em">-80.0</tspan></text><line x1="800.0" y1="160.0" x2="480.0" y2="400.0" style="stroke:red;stroke-width:16.6675;"/><text x="662.0005" y="309.334" font-family="Verdana" font-size="12" style="fill:red;text-anchor:middle;"><tspan x="662.0005" dy="0em">66.67</tspan></text><circle cx="160.0" cy="160.0" r="6" style="stroke:black;stroke-width:2;fill:white;"/><text x="145.0" y="145.0" font-family="Verdana" font-size="12" style="fill:black;text-anchor:end;"><tspan x="145.0" dy="0em">[1]</tspan></text><g style="stroke:black;stroke-width:2;fill:white;"><polyline points="160.0,166.0 149.608,178.0 170.392,178.0 160.0,166.0" style="stroke:black;"/></g><line x1="160.0" y1="160.0" x2="80.0" y2="160.0" style="stroke:green;stroke-width:3;"/><polyline points="90.0,155.0 80.0,160.0 90.0,165.0" style="stroke:green;stroke-width:3;fill:green;"/><text x="120.0" y="150.0" font-family="Verdana" font-size="12" style="fill:green;text-anchor:middle;"><tspan x="120.0" dy="0em">53.33</tspan></text><line x1="160.0" y1="160.0" x2="160.0" y2="99.99624976561034" style="stroke:green;stroke-width:3;"/><polyline points="155.0,109.99624976561034 160.0,99.99624976561034 165.0,109.99624976561034" style="stroke:green;stroke-width:3;fill:green;"/><text x="170.0" y="129.99812488280517" font-family="Verdana" font-size="12" style="fill:green;text-anchor:start;"><tspan x="170.0" dy="0em">40.0</tspan></text><circle cx="480.0" cy="160.0" r="6" style="stroke:black;stroke-width:2;fill:white;"/><text x="465.0" y="145.0" font-family="Verdana" font-size="12" style="fill:black;text-anchor:end;"><tspan x="465.0" dy="0em">[2]</tspan></text><circle cx="800.0" cy="160.0" r="6" style="stroke:black;stroke-width:2;fill:white;"/><text x="785.0" y="145.0" font-family="Verdana" font-size="12" style="fill:black;text-anchor:end;"><tspan x="785.0" dy="0em">[3]</tspan></text><g style="stroke:black;stroke-width:2;fill:white;"><polyline points="800.0,166.0 789.608,178.0 810.392,178.0 800.0,166.0" style="stroke:black;"/></g><line x1="800.0" y1="160.0" x2="880.0" y2="160.0" style="stroke:green;stroke-width:3;"/><polyline points="870.0,155.0 880.0,160.0 870.0,165.0" style="stroke:green;stroke-width:3;fill:green;"/><text x="840.0" y="150.0" font-family="Verdana" font-size="12" style="fill:green;text-anchor:middle;"><tspan x="840.0" dy="0em">53.33</tspan></text><line x1="800.0" y1="160.0" x2="800.0" y2="99.99624976561034" style="stroke:green;stroke-width:3;"/><polyline points="795.0,109.99624976561034 800.0,99.99624976561034 805.0,109.99624976561034" style="stroke:green;stroke-width:3;fill:green;"/><text x="810.0" y="129.99812488280517" font-family="Verdana" font-size="12" style="fill:green;text-anchor:start;"><tspan x="810.0" dy="0em">40.0</tspan></text><circle cx="480.0" cy="400.0" r="6" style="stroke:black;stroke-width:2;fill:white;"/><text x="465.0" y="385.0" font-family="Verdana" font-size="12" style="fill:black;text-anchor:end;"><tspan x="465.0" dy="0em">[4]</tspan></text><g transform="translate(890.0,550.0) scale(0.032,-0.032)"
fill="#000000" stroke="none">
<path d="M696 1980 c-145 -57 -208 -159 -209 -335 0 -103 27 -197 85 -291 111
-184 268 -226 385 -103 67 71 101 210 89 369 -13 185 -72 302 -177 355 -58 30
-106 31 -173 5z"/>
<path d="M1302 1965 c-85 -38 -182 -155 -215 -260 -36 -112 -29 -293 14 -378
25 -49 85 -114 120 -133 79 -40 181 -2 259 97 88 112 137 240 147 384 9 138
-19 209 -105 269 -37 26 -54 31 -115 33 -48 2 -83 -2 -105 -12z"/>
<path d="M145 1507 c-47 -22 -113 -103 -130 -160 -30 -102 -13 -228 51 -365
40 -88 98 -153 167 -188 126 -65 291 -5 350 126 70 156 -60 487 -225 571 -54
28 -168 36 -213 16z"/>
<path d="M1693 1445 c-74 -37 -137 -111 -188 -218 -68 -144 -77 -251 -30 -363
22 -53 42 -73 100 -100 98 -46 176 -24 271 79 130 141 190 378 126 503 -58
112 -171 152 -279 99z"/>
<path d="M845 1143 c-66 -23 -110 -70 -169 -181 -50 -95 -80 -123 -186 -177
-61 -32 -164 -143 -201 -220 -31 -65 -34 -77 -34 -170 0 -87 3 -107 26 -155
37 -79 97 -133 205 -187 82 -40 104 -47 171 -50 69 -4 92 0 191 31 63 20 131
36 152 36 20 0 82 -14 136 -32 81 -26 116 -32 189 -32 109 0 176 21 270 89 55
39 69 56 102 121 32 66 37 87 41 164 7 134 -13 186 -102 275 -39 39 -103 90
-142 113 -74 45 -104 79 -187 219 -47 77 -90 115 -164 143 -80 31 -228 37
-298 13z"/>
</g>
</svg>