<?xml version="1.0" standalone="no"?>
<!DOCTYPE svg PUBLIC "-//W3C//DTD SVG 1.1//EN"
  "http://www.w3.org/Graphics/SVG/1.1/DTD/svg11.dtd">
<svg width="1281.0" height="561.0" version="1.1"
  xmlns="http://www.w3.org/2000/svg">
<line x1="0" y1="0" x2="0" y2="560" style="stroke:gray;"/><line x1="80" y1="0" x2="80" y2="560" style="stroke:gray;"/><line x1="160" y1="0" x2="160" y2="560" style="stroke:gray;"/><line x1="240" y1="0" x2="240" y2="560" style="stroke:gray;"/><line x1="320" y1="0" x2="320" y2="560" style="stroke:gray;"/><line x1="400" y1="0" x2="400" y2="560" style="stroke:gray;"/><line x1="480" y1="0" x2="480" y2="560" style="stroke:gray;"/><line x1="560" y1="0" x2="560" y2="560" style="stroke:gray;"/><line x1="640" y1="0" x2="640" y2="560" style="stroke:gray;"/><line x1="720" y1="0" x2="720" y2="560" style="stroke:gray;"/><line x1="800" y1="0" x2="800" y2="560" style="stroke:gray;"/><line x1="880" y1="0" x2="880" y2="560" style="stroke:gray;"/><line x1="960" y1="0" x2="960" y2="560" style="stroke:gray;"/><line x1="1040" y1="0" x2="1040" y2="560" style="stroke:gray;"/><line x1="1120" y1="0" x2="1120" y2="560" style="stroke:gray;"/><line x1="1200" y1="0" x2="1200" y2="560" style="stroke:gray;"/><line x1="1280" y1="0" x2="1280" y2="560" style="stroke:gray;"/><line x1="0" y1="0" x2="1280" y2="0" style="stroke:gray;"/><line x1="0" y1="80" x2="1280" y2="80" style="stroke:gray;"/><line x1="0" y1="160" x2="1280" y2="160" style="stroke:gray;"/><line x1="0" y1="240" x2="1280" y2="240" style="stroke:gray;"/><line x1="0" y1="320" x2="1280" y2="320" style="stroke:gray;"/><line x1="0" y1="400" x2="1280" y2="400" style="stroke:gray;"/><line x1="0" y1="480" x2="1280" y2="480" style="stroke:gray;"/><line x1="0" y1="560" x2="1280" y2="560" style="stroke:gray;"/><line x1="80" y1="480" x2="160" y2="480" style="stroke:black;stroke-width:2;"/><polyline points="150,475 160,480 150,485" style="stroke:black;stroke-width:2;fill:black;"/><text x="120" y="470" font-family="Verdana" font-size="12" style="fill:black;text-anchor:middle;"><tspan x="120" dy="0em">1 m</tspan></text><line x1="80" y1="480" x2="80" y2="400" style="stroke:black;stroke-width:2;"/><polyline points="75,410 80,400 85,410" style="stroke:black;stroke-width:2;fill:black;"/><text x="90" y="440" font-family="Verdana" font-size="12" style="fill:black;text-anchor:start;"><tspan x="90" dy="0em">1 m</tspan></text><text x="30" y="50" font-family="Verdana" font-size="20" style="font-weight:bold;fill:black;text-anchor:start;"><tspan x="30" dy="0em">Displacements of Primer 3 truss:</tspan></text><line x1="160.0" y1="400.0" x2="480.0" y2="400.0" style="stroke:gray;stroke-width:2;"/><text x="320.0" y="380.0" font-family="Verdana" font-size="12" style="fill:gray;text-anchor:middle;"></text><line x1="480.0" y1="400.0" x2="880.0" y2="400.0" style="stroke:gray;stroke-width:2;"/><text x="680.0" y="380.0" font-family="Verdana" font-size="12" style="fill:gray;text-anchor:middle;"></text><line x1="880.0" y1="400.0" x2="1200.0" y2="400.0" style="stroke:gray;stroke-width:2;"/><text x="1040.0" y="380.0" font-family="Verdana" font-size="12" style="fill:gray;text-anchor:middle;"></text><line x1="160.0" y1="400.0" x2="480.0" y2="80.0" style="stroke:gray;stroke-width:2;"/><text x="305.85786437626905" y="225.85786437626905" font-family="Verdana" font-size="12" style="fill:gray;text-anchor:middle;"></text><line x1="480.0" y1="400.0" x2="480.0" y2="80.0" style="stroke:gray;stroke-width:2;"/><text x="460.0" y="240.0" font-family="Verdana" font-size="12" style="fill:gray;text-anchor:middle;"></text><line x1="880.0" y1="400.0" x2="480.0" y2="80.0" style="stroke:gray;stroke-width:2;"/><text x="667.5060990489116" y="255.61737618886062" font-family="Verdana" font-size="12" style="fill:gray;text-anchor:middle;"></text><line x1="880.0" y1="400.0" x2="880.0" y2="80.0" style="stroke:gray;stroke-width:2;"/><text x="860.0" y="240.0" font-family="Verdana" font-size="12" style="fill:gray;text-anchor:middle;"></text><line x1="1200.0" y1="400.0" x2="880.0" y2="80.0" style="stroke:gray;stroke-width:2;"/><text x="1025.8578643762692" y="254.14213562373095" font-family="Verdana" font-size="12" style="fill:gray;text-anchor:middle;"></text><line x1="480.0" y1="80.0" x2="880.0" y2="80.0" style="stroke:gray;stroke-width:2;"/><text x="680.0" y="60.0" font-family="Verdana" font-size="12" style="fill:gray;text-anchor:middle;"></text><line x1="160.0" y1="400.0" x2="480.0" y2="434.272" style="stroke:black;stroke-width:2;"/><text x="322.1298198745758" y="397.24972666129065" font-family="Verdana" font-size="12" style="fill:black;text-anchor:middle;"><tspan x="322.1298198745758" dy="0em">(1)</tspan></text><line x1="480.0" y1="434.272" x2="880.0" y2="439.4" style="stroke:black;stroke-width:2;"/><text x="680.2563789326191" y="416.83764332143994" font-family="Verdana" font-size="12" style="fill:black;text-anchor:middle;"><tspan x="680.2563789326191" dy="0em">(2)</tspan></text><line x1="880.0" y1="439.4" x2="1200.0" y2="400.0" style="stroke:black;stroke-width:2;"/><text x="1037.5559558843681" y="399.84989550755853" font-family="Verdana" font-size="12" style="fill:black;text-anchor:middle;"><tspan x="1037.5559558843681" dy="0em">(3)</tspan></text><line x1="160.0" y1="400.0" x2="484.1024" y2="114.27199999999999" style="stroke:black;stroke-width:2;"/><text x="308.8251372412399" y="242.13362472468646" font-family="Verdana" font-size="12" style="fill:black;text-anchor:middle;"><tspan x="308.8251372412399" dy="0em">(4)</tspan></text><line x1="480.0" y1="434.272" x2="484.1024" y2="114.27199999999999" style="stroke:black;stroke-width:2;"/><text x="462.0528433214399" y="274.01562106738083" font-family="Verdana" font-size="12" style="fill:black;text-anchor:middle;"><tspan x="462.0528433214399" dy="0em">(5)</tspan></text><line x1="880.0" y1="439.4" x2="484.1024" y2="114.27199999999999" style="stroke:black;stroke-width:2;"/><text x="669.358127311796" y="292.2919343208998" font-family="Verdana" font-size="12" style="fill:black;text-anchor:middle;"><tspan x="669.358127311796" dy="0em">(6)</tspan></text><line x1="880.0" y1="439.4" x2="870.7696" y2="119.39999999999998" style="stroke:black;stroke-width:2;"/><text x="855.3931151517428" y="279.976660149448" font-family="Verdana" font-size="12" style="fill:black;text-anchor:middle;"><tspan x="855.3931151517428" dy="0em">(7)</tspan></text><line x1="1200.0" y1="400.0" x2="870.7696" y2="119.39999999999998" style="stroke:black;stroke-width:2;"/><text x="1022.4116005472387" y="274.9215668036793" font-family="Verdana" font-size="12" style="fill:black;text-anchor:middle;"><tspan x="1022.4116005472387" dy="0em">(8)</tspan></text><line x1="484.1024" y1="114.27199999999999" x2="870.7696" y2="119.39999999999998" style="stroke:black;stroke-width:2;"/><text x="677.7012176909786" y="96.83775858790597" font-family="Verdana" font-size="12" style="fill:black;text-anchor:middle;"><tspan x="677.7012176909786" dy="0em">(9)</tspan></text><circle cx="160.0" cy="400.0" r="6" style="stroke:black;stroke-width:2;fill:white;"/><text x="145.0" y="385.0" font-family="Verdana" font-size="12" style="fill:black;text-anchor:end;"><tspan x="145.0" dy="0em">(0.0, 0.0)</tspan></text><g style="stroke:black;stroke-width:2;fill:white;"><polyline points="160.0,406.0 149.608,418.0 170.392,418.0 160.0,406.0" style="stroke:black;"/></g><circle cx="480.0" cy="434.272" r="6" style="stroke:black;stroke-width:2;fill:white;"/><text x="465.0" y="419.272" font-family="Verdana" font-size="12" style="fill:black;text-anchor:end;"><tspan x="465.0" dy="0em">(0.0, -0.2142)</tspan></text><circle cx="880.0" cy="439.4" r="6" style="stroke:black;stroke-width:2;fill:white;"/><text x="865.0" y="424.4" font-family="Verdana" font-size="12" style="fill:black;text-anchor:end;"><tspan x="865.0" dy="0em">(0.0, -0.24625)</tspan></text><circle cx="1200.0" cy="400.0" r="6" style="stroke:black;stroke-width:2;fill:white;"/><text x="1185.0" y="385.0" font-family="Verdana" font-size="12" style="fill:black;text-anchor:end;"><tspan x="1185.0" dy="0em">(0.0, 0.0)</tspan></text><g style="stroke:black;stroke-width:2;fill:white;"><polyline points="1200.0,406.0 1189.608,418.0 1210.392,418.0 1200.0,406.0" style="stroke:black;"/></g><circle cx="484.1024" cy="114.27199999999999" r="6" style="stroke:black;stroke-width:2;fill:white;"/><text x="469.1024" y="99.27199999999999" font-family="Verdana" font-size="12" style="fill:black;text-anchor:end;"><tspan x="469.1024" dy="0em">(0.02564, -0.2142)</tspan></text><circle cx="870.7696" cy="119.39999999999998" r="6" style="stroke:black;stroke-width:2;fill:white;"/><text x="855.7696" y="104.39999999999998" font-family="Verdana" font-size="12" style="fill:black;text-anchor:end;"><tspan x="855.7696" dy="0em">(-0.05769, -0.24625)</tspan></text></svg>