<?xml version="1.0" standalone="no"?>
<!DOCTYPE svg PUBLIC "-//W3C//DTD SVG 1.1//EN"
  "http://www.w3.org/Graphics/SVG/1.1/DTD/svg11.dtd">
<svg width="1281.0" height="561.0" version="1.1"
  xmlns="http://www.w3.org/2000/svg">
<line x1="0" y1="0" x2="0" y2="560" style="stroke:gray;"/><line x1="80" y1="0" x2="80" y2="560" style="stroke:gray;"/><line x1="160" y1="0" x2="160" y2="560" style="stroke:gray;"/><line x1="240" y1="0" x2="240" y2="560" style="stroke:gray;"/><line x1="320" y1="0" x2="320" y2="560" style="stroke:gray;"/><line x1="400" y1="0" x2="400" y2="560" style="stroke:gray;"/><line x1="480" y1="0" x2="480" y2="560" style="stroke:gray;"/><line x1="560" y1="0" x2="560" y2="560" style="stroke:gray;"/><line x1="640" y1="0" x2="640" y2="560" style="stroke:gray;"/><line x1="720" y1="0" x2="720" y2="560" style="stroke:gray;"/><line x1="800" y1="0" x2="800" y2="560" style="stroke:gray;"/><line x1="880" y1="0" x2="880" y2="560" style="stroke:gray;"/><line x1="960" y1="0" x2="960" y2="560" style="stroke:gray;"/><line x1="1040" y1="0" x2="1040" y2="560" style="stroke:gray;"/><line x1="1120" y1="0" x2="1120" y2="560" style="stroke:gray;"/><line x1="1200" y1="0" x2="1200" y2="560" style="stroke:gray;"/><line x1="1280" y1="0" x2="1280" y2="560" style="stroke:gray;"/><line x1="0" y1="0" x2="1280" y2="0" style="stroke:gray;"/><line x1="0" y1="80" x2="1280" y2="80" style="stroke:gray;"/><line x1="0" y1="160" x2="1280" y2="160" style="stroke:gray;"/><line x1="0" y1="240" x2="1280" y2="240" style="stroke:gray;"/><line x1="0" y1="320" x2="1280" y2="320" style="stroke:gray;"/><line x1="0" y1="400" x2="1280" y2="400" style="stroke:gray;"/><line x1="0" y1="480" x2="1280" y2="480" style="stroke:gray;"/><line x1="0" y1="560" x2="1280" y2="560" style="stroke:gray;"/><line x1="80" y1="480" x2="160" y2="480" style="stroke:black;stroke-width:2;"/><polyline points="150,475 160,480 150,485" style="stroke:black;stroke-width:2;fill:black;"/><text x="120" y="470" font-family="Verdana" font-size="12" style="fill:black;text-anchor:middle;"><tspan x="120" dy="0em">1 m</tspan></text><line x1="80" y1="480" x2="80" y2="400" style="stroke:black;stroke-width:2;"/><polyline points="75,410 80,400 85,410" style="stroke:black;stroke-width:2;fill:black;"/><text x="90" y="440" font-family="Verdana" font-size="12" style="fill:black;text-anchor:start;"><tspan x="90" dy="0em">1 m</tspan></text><text x="30" y="50" font-family="Verdana" font-size="20" style="font-weight:bold;fill:black;text-anchor:start;"><tspan x="30" dy="0em">Reactions and axial forces of Primer 3 truss:</tspan></text><line x1="160.0" y1="400.0" x2="480.0" y2="400.0" style="stroke:black;stroke-width:2;"/><text x="320.0" y="380.0" font-family="Verdana" font-size="12" style="fill:black;text-anchor:middle;"><tspan x="320.0" dy="0em">(1)</tspan></text><line x1="480.0" y1="400.0" x2="880.0" y2="400.0" style="stroke:black;stroke-width:2;"/><text x="680.0" y="380.0" font-family="Verdana" font-size="12" style="fill:black;text-anchor:middle;"><tspan x="680.0" dy="0em">(2)</tspan></text><line x1="880.0" y1="400.0" x2="1200.0" y2="400.0" style="stroke:black;stroke-width:2;"/><text x="1040.0" y="380.0" font-family="Verdana" font-size="12" style="fill:black;text-anchor:middle;"><tspan x="1040.0" dy="0em">(3)</tspan></text><line x1="160.0" y1="400.0" x2="480.0" y2="80.0" style="stroke:black;stroke-width:2;"/><text x="305.85786437626905" y="225.85786437626905" font-family="Verdana" font-size="12" style="fill:black;text-anchor:middle;"><tspan x="305.85786437626905" dy="0em">(4)</tspan></text><line x1="480.0" y1="400.0" x2="480.0" y2="80.0" style="stroke:black;stroke-width:2;"/><text x="460.0" y="240.0" font-family="Verdana" font-size="12" style="fill:black;text-anchor:middle;"><tspan x="460.0" dy="0em">(5)</tspan></text><line x1="880.0" y1="400.0" x2="480.0" y2="80.0" style="stroke:black;stroke-width:2;"/><text x="667.5060990489116" y="255.61737618886062" font-family="Verdana" font-size="12" style="fill:black;text-anchor:middle;"><tspan x="667.5060990489116" dy="0em">(6)</tspan></text><line x1="880.0" y1="400.0" x2="880.0" y2="80.0" style="stroke:black;stroke-width:2;"/><text x="860.0" y="240.0" font-family="Verdana" font-size="12" style="fill:black;text-anchor:middle;"><tspan x="860.0" dy="0em">(7)</tspan></text><line x1="1200.0" y1="400.0" x2="880.0" y2="80.0" style="stroke:black;stroke-width:2;"/><text x="1025.8578643762692" y="254.14213562373095" font-family="Verdana" font-size="12" style="fill:black;text-anchor:middle;"><tspan x="1025.8578643762692" dy="0em">(8)</tspan></text><line x1="480.0" y1="80.0" x2="880.0" y2="80.0" style="stroke:black;stroke-width:2;"/><text x="680.0" y="60.0" font-family="Verdana" font-size="12" style="fill:black;text-anchor:middle;"><tspan x="680.0" dy="0em">(9)</tspan></text><circle cx="160.0" cy="400.0" r="6" style="stroke:black;stroke-width:2;fill:white;"/><text x="145.0" y="385.0" font-family="Verdana" font-size="12" style="fill:black;text-anchor:end;"><tspan x="145.0" dy="0em">[1]</tspan></text><g style="stroke:black;stroke-width:2;fill:white;"><polyline points="160.0,406.0 149.608,418.0 170.392,418.0 160.0,406.0" style="stroke:black;"/></g><circle cx="480.0" cy="400.0" r="6" style="stroke:black;stroke-width:2;fill:white;"/><text x="465.0" y="385.0" font-family="Verdana" font-size="12" style="fill:black;text-anchor:end;"><tspan x="465.0" dy="0em">[2]</tspan></text><circle cx="880.0" cy="400.0" r="6" style="stroke:black;stroke-width:2;fill:white;"/><text x="865.0" y="385.0" font-family="Verdana" font-size="12" style="fill:black;text-anchor:end;"><tspan x="865.0" dy="0em">[3]</tspan></text><circle cx="1200.0" cy="400.0" r="6" style="stroke:black;stroke-width:2;fill:white;"/><text x="1185.0" y="385.0" font-family="Verdana" font-size="12" style="fill:black;text-anchor:end;"><tspan x="1185.0" dy="0em">[4]</tspan></text><g style="stroke:black;stroke-width:2;fill:white;"><polyline points="1200.0,406.0 1189.608,418.0 1210.392,418.0 1200.0,406.0" style="stroke:black;"/></g><circle cx="480.0" cy="80.0" r="6" style="stroke:black;stroke-width:2;fill:white;"/><text x="465.0" y="65.0" font-family="Verdana" font-size="12" style="fill:black;text-anchor:end;"><tspan x="465.0" dy="0em">[5]</tspan></text><line x1="480.0" y1="80.0" x2="480.0" y2="180.0" style="stroke:red;stroke-width:3;"/><polyline points="475.0,170.0 480.0,180.0 485.0,170.0" style="stroke:red;stroke-width:3;fill:red;"/><text x="490.0" y="130.0" font-family="Verdana" font-size="12" style="fill:red;text-anchor:start;"><tspan x="490.0" dy="0em">100.0</tspan></text><circle cx="880.0" cy="80.0" r="6" style="stroke:black;stroke-width:2;fill:white;"/><text x="865.0" y="65.0" font-family="Verdana" font-size="12" style="fill:black;text-anchor:end;"><tspan x="865.0" dy="0em">[6]</tspan></text><line x1="880.0" y1="80.0" x2="880.0" y2="180.0" style="stroke:red;stroke-width:3;"/><polyline points="875.0,170.0 880.0,180.0 885.0,170.0" style="stroke:red;stroke-width:3;fill:red;"/><text x="890.0" y="130.0" font-family="Verdana" font-size="12" style="fill:red;text-anchor:start;"><tspan x="890.0" dy="0em">100.0</tspan></text></svg>