<?xml version="1.0" standalone="no"?>
<!DOCTYPE svg PUBLIC "-//W3C//DTD SVG 1.1//EN"
  "http://www.w3.org/Graphics/SVG/1.1/DTD/svg11.dtd">
<svg width="561.0" height="481.0" version="1.1"
  xmlns="http://www.w3.org/2000/svg">
<line x1="0" y1="0" x2="0" y2="480" style="stroke:gray;"/><line x1="80" y1="0" x2="80" y2="480" style="stroke:gray;"/><line x1="160" y1="0" x2="160" y2="480" style="stroke:gray;"/><line x1="240" y1="0" x2="240" y2="480" style="stroke:gray;"/><line x1="320" y1="0" x2="320" y2="480" style="stroke:gray;"/><line x1="400" y1="0" x2="400" y2="480" style="stroke:gray;"/><line x1="480" y1="0" x2="480" y2="480" style="stroke:gray;"/><line x1="560" y1="0" x2="560" y2="480" style="stroke:gray;"/><line x1="0" y1="0" x2="560" y2="0" style="stroke:gray;"/><line x1="0" y1="80" x2="560" y2="80" style="stroke:gray;"/><line x1="0" y1="160" x2="560" y2="160" style="stroke:gray;"/><line x1="0" y1="240" x2="560" y2="240" style="stroke:gray;"/><line x1="0" y1="320" x2="560" y2="320" style="stroke:gray;"/><line x1="0" y1="400" x2="560" y2="400" style="stroke:gray;"/><line x1="0" y1="480" x2="560" y2="480" style="stroke:gray;"/><line x1="80" y1="400" x2="160" y2="400" style="stroke:black;stroke-width:2;"/><polyline points="150,395 160,400 150,405" style="stroke:black;stroke-width:2;fill:black;"/><text x="120" y="390" font-family="Verdana" font-size="12" style="fill:black;text-anchor:middle;"><tspan x="120" dy="0em">1 m</tspan></text><line x1="80" y1="400" x2="80" y2="320" style="stroke:black;stroke-width:2;"/><polyline points="75,330 80,320 85,330" style="stroke:black;stroke-width:2;fill:black;"/><text x="90" y="360" font-family="Verdana" font-size="12" style="fill:black;text-anchor:start;"><tspan x="90" dy="0em">1 m</tspan></text><line x1="-160.0" y1="80.0" x2="160.0" y2="80.0" style="stroke:black;stroke-width:2;"/><text x="0.0" y="60.0" font-family="Verdana" font-size="12" style="fill:black;text-anchor:middle;"><tspan x="0.0" dy="0em">(1)</tspan></text><line x1="160.0" y1="80.0" x2="480.0" y2="80.0" style="stroke:black;stroke-width:2;"/><text x="320.0" y="60.0" font-family="Verdana" font-size="12" style="fill:black;text-anchor:middle;"><tspan x="320.0" dy="0em">(2)</tspan></text><line x1="-160.0" y1="80.0" x2="160.0" y2="320.0" style="stroke:black;stroke-width:2;"/><text x="12.0" y="184.0" font-family="Verdana" font-size="12" style="fill:black;text-anchor:middle;"><tspan x="12.0" dy="0em">(3)</tspan></text><line x1="160.0" y1="80.0" x2="160.0" y2="320.0" style="stroke:black;stroke-width:2;"/><text x="180.0" y="200.0" font-family="Verdana" font-size="12" style="fill:black;text-anchor:middle;"><tspan x="180.0" dy="0em">(4)</tspan></text><line x1="480.0" y1="80.0" x2="160.0" y2="320.0" style="stroke:black;stroke-width:2;"/><text x="332.0" y="216.0" font-family="Verdana" font-size="12" style="fill:black;text-anchor:middle;"><tspan x="332.0" dy="0em">(5)</tspan></text><circle cx="-160.0" cy="80.0" r="6" style="stroke:black;stroke-width:2;fill:white;"/><text x="-175.0" y="65.0" font-family="Verdana" font-size="12" style="fill:black;text-anchor:end;"><tspan x="-175.0" dy="0em">[1]</tspan></text><g style="stroke:black;stroke-width:2;fill:white;"><polyline points="-160.0,86.0 -170.392,98.0 -149.608,98.0 -160.0,86.0" style="stroke:black;"/></g><circle cx="160.0" cy="80.0" r="6" style="stroke:black;stroke-width:2;fill:white;"/><text x="145.0" y="65.0" font-family="Verdana" font-size="12" style="fill:black;text-anchor:end;"><tspan x="145.0" dy="0em">[2]</tspan></text><line x1="160.0" y1="80.0" x2="160.0" y2="160.0" style="stroke:red;stroke-width:3;"/><polyline points="155.0,150.0 160.0,160.0 165.0,150.0" style="stroke:red;stroke-width:3;fill:red;"/><text x="170.0" y="120.0" font-family="Verdana" font-size="12" style="fill:red;text-anchor:start;"><tspan x="170.0" dy="0em">80.0</tspan></text><circle cx="480.0" cy="80.0" r="6" style="stroke:black;stroke-width:2;fill:white;"/><text x="465.0" y="65.0" font-family="Verdana" font-size="12" style="fill:black;text-anchor:end;"><tspan x="465.0" dy="0em">[3]</tspan></text><g style="stroke:black;stroke-width:2;fill:white;"><polyline points="480.0,86.0 469.608,98.0 490.392,98.0 480.0,86.0" style="stroke:black;"/></g><circle cx="160.0" cy="320.0" r="6" style="stroke:black;stroke-width:2;fill:white;"/><text x="145.0" y="305.0" font-family="Verdana" font-size="12" style="fill:black;text-anchor:end;"><tspan x="145.0" dy="0em">[4]</tspan></text></svg>